<svg id="Group_495" data-name="Group 495" xmlns="http://www.w3.org/2000/svg" xmlns:xlink="http://www.w3.org/1999/xlink" width="88.252" height="82" viewBox="0 0 88.252 82">
  <defs>
    <clipPath id="clip-path">
      <rect id="Rectangle_379" data-name="Rectangle 379" width="88.252" height="82" fill="none"/>
    </clipPath>
  </defs>
  <g id="Group_494" data-name="Group 494" clip-path="url(#clip-path)">
    <path id="Path_261" data-name="Path 261" d="M47.561,47.352c-7.351-.267-21.539,4.639-24.059.668s3.074-7.284,2.339-9.957-4.986-3.589-4.144-8.087c.535-2.853,3.409-2.2,2.807-5.48s.869-7.218,5.547-7.151c2.789.04,5.23,2.773,8.488,2.54,4.642-.334,7.784-3.018,10.626.4,2.389,2.873-2.205,5.881-.869,8.22s3.859,3.609,2.857,6.95c-.921,3.07-4.143,2.406-3.542,5.681.808,4.4-3.88,6.36-7.623,3.419s-6.929-1.281-10.4.925-5.882.133-6.617-4.211" fill="none" stroke="#58232b" stroke-linecap="round" stroke-width="1"/>
    <path id="Path_262" data-name="Path 262" d="M.5,56.837s4.948,4.212,10.531,2.853c8.757-2.131,9.737-9.972,9.931-13.274a62.924,62.924,0,0,0-.8-10.894,16.966,16.966,0,0,0-1.47-5.547c-.4-1-3.943-3.475-.8-8.487s9.511-7.4,18.2-7.975,17.889,3.7,18.29,7.908-1.336,4.21-1.2,6.683c.073,1.338.513,5.612.861,9.464" fill="none" stroke="#58232b" stroke-linecap="round" stroke-width="1"/>
    <path id="Path_263" data-name="Path 263" d="M78.385,56.038c3.351-5.476,1.867-11.056.145-13.433a10.543,10.543,0,0,0-8.441-4.241c-3.644-.016-6.055-2.192-9.876-2.438a11.244,11.244,0,0,0-11.042,7.851,27.61,27.61,0,0,1-1.479,3.517c-1.418,2.762-2.615,3.555-3.272,5.024-.874,1.958-2.53,7.709,1.631,11.728s13.351,7.476,19.18,5.066,10.193-9.55,9.267-13.606-6.749-8.64-11.637-5.617a8.013,8.013,0,0,0-1.49,12.618,8.392,8.392,0,0,0,8.375,1.871c1.2-.3,6.5-3.677,9.455-9.882" fill="none" stroke="#58232b" stroke-linecap="round" stroke-width="1"/>
    <path id="Path_264" data-name="Path 264" d="M48.816,66.133q-.776.048-1.564.048A25.185,25.185,0,0,1,24.311,51.4" fill="none" stroke="#58232b" stroke-linecap="round" stroke-width="1"/>
    <path id="Path_265" data-name="Path 265" d="M48.757,15.864A25.185,25.185,0,0,1,72.311,38.518" fill="none" stroke="#58232b" stroke-linecap="round" stroke-width="1"/>
    <circle id="Ellipse_80" data-name="Ellipse 80" cx="40.5" cy="40.5" r="40.5" transform="translate(6.752 0.5)" fill="none" stroke="#58232b" stroke-width="1"/>
    <path id="Path_266" data-name="Path 266" d="M45.1,32.742A3.908,3.908,0,1,1,41.2,28.835,3.907,3.907,0,0,1,45.1,32.742Z" fill="none" stroke="#58232b" stroke-linecap="round" stroke-width="1"/>
    <circle id="Ellipse_81" data-name="Ellipse 81" cx="3.611" cy="3.611" r="3.611" transform="translate(27.468 25.202)" fill="none" stroke="#58232b" stroke-linecap="round" stroke-width="1"/>
  </g>
</svg>
