<svg id="Group_497" data-name="Group 497" xmlns="http://www.w3.org/2000/svg" xmlns:xlink="http://www.w3.org/1999/xlink" width="83.003" height="82" viewBox="0 0 83.003 82">
  <defs>
    <clipPath id="clip-path">
      <rect id="Rectangle_380" data-name="Rectangle 380" width="83.003" height="82" fill="none"/>
    </clipPath>
  </defs>
  <g id="Group_496" data-name="Group 496" clip-path="url(#clip-path)">
    <circle id="Ellipse_82" data-name="Ellipse 82" cx="40.5" cy="40.5" r="40.5" transform="translate(0.5 0.5)" fill="none" stroke="#58232b" stroke-linecap="round" stroke-width="1"/>
    <path id="Path_267" data-name="Path 267" d="M82.5,72.744c-7.7-9.43-18.165,4.734-38.312,5.174-10.016.219-23.449-1.1-34.46-16.293S3.458,22.983,12.6,14.946,32.252,1.424,47.715,4.267,75.678,21,76.779,30.689,78.321,52.377,65.77,61.184s-14.812,4.873-13.516.978" fill="none" stroke="#58232b" stroke-linecap="round" stroke-width="1"/>
    <path id="Path_268" data-name="Path 268" d="M45.409,42.648c-1.5,1.237,3.3,4.915,10.136,2.6,5.367-1.817,7.761-4.249,8.793-7.4.862-2.634.852-4.236-2.862-2.532S47.412,41,45.409,42.648Z" fill="none" stroke="#58232b" stroke-linecap="round" stroke-width="1"/>
    <path id="Path_269" data-name="Path 269" d="M15.678,44.134a1.855,1.855,0,0,0,0,2.628c1.1,1.1,2.4,1.454,2.12,2.973-.164.871-1.129,2.746,1.293,3.74s.22,2.205.77,3.526,2.478.21,3.689,1.486,1.528,3.872,4.018,5.212c2.587,1.393,5.064.568,6.055,1.669s.826,2.56,2.642,3.192c2.532.881,3.5-1.516,6.087-.965,1.95.415,2.036,2.8,6.769,2.727,3.457-.053,4.428-3.633,4.428-3.633" fill="none" stroke="#58232b" stroke-linecap="round" stroke-width="1"/>
    <path id="Path_270" data-name="Path 270" d="M22.584,32.4c4.278-1.016,5.975,3.9,10.268,2.688s7.211-.95,9.358.394c2.01,1.258,4.991,4.409,7.927,4.581" fill="none" stroke="#58232b" stroke-linecap="round" stroke-width="1"/>
    <path id="Path_271" data-name="Path 271" d="M49.121,45.805a10.574,10.574,0,0,0-1.937,1.224c-1.5,1.237,3.3,4.915,10.136,2.6,5.367-1.817,7.762-4.249,8.794-7.4.862-2.634,1.221-4.4-2.493-2.7" fill="none" stroke="#58232b" stroke-linecap="round" stroke-width="1"/>
    <path id="Path_272" data-name="Path 272" d="M51.342,50.378A11.962,11.962,0,0,0,49.4,51.539c-1.5,1.237,3.3,4.915,10.135,2.6,5.367-1.816,7.762-4.249,8.794-7.4.862-2.634.852-4.236-2.862-2.532" fill="none" stroke="#58232b" stroke-linecap="round" stroke-width="1"/>
    <path id="Path_273" data-name="Path 273" d="M12.688,37.473c-1.252,2.826,3.319,7.534,6.163,7.231,2.988-.319,5.637-5.051,3.488-8.786S13.736,35.107,12.688,37.473Z" fill="none" stroke="#58232b" stroke-linecap="round" stroke-width="1"/>
    <path id="Path_274" data-name="Path 274" d="M20.909,23.17c-3.2.16-5.432,6.6-3.821,9.095,1.692,2.62,7.317,2.863,9.773-.876S23.593,23.036,20.909,23.17Z" fill="none" stroke="#58232b" stroke-linecap="round" stroke-width="1"/>
    <path id="Path_275" data-name="Path 275" d="M24.448,31c.117.523-.718,1.154-1.864,1.409s-2.17.039-2.286-.484.718-1.154,1.864-1.409S24.331,30.473,24.448,31Z" fill="none" stroke="#58232b" stroke-linecap="round" stroke-width="1"/>
    <path id="Path_276" data-name="Path 276" d="M52.254,62.162c1.174-2.863-.4-7.335-2.169-8.489-2.816-1.838-8.669,2.249-8.839,5.356-.156,2.849,3.347,6.01,7.158,5.661" fill="none" stroke="#58232b" stroke-linecap="round" stroke-width="1"/>
    <path id="Path_277" data-name="Path 277" d="M23.715,21.992s11.016-8.312,24.33-4.954A24.29,24.29,0,0,1,66.684,39.426" fill="none" stroke="#58232b" stroke-linecap="round" stroke-width="1"/>
  </g>
</svg>
