<svg id="Group_499" data-name="Group 499" xmlns="http://www.w3.org/2000/svg" xmlns:xlink="http://www.w3.org/1999/xlink" width="96.235" height="92.689" viewBox="0 0 96.235 92.689">
  <defs>
    <clipPath id="clip-path">
      <rect id="Rectangle_381" data-name="Rectangle 381" width="96.235" height="92.689" transform="translate(0 0)" fill="none"/>
    </clipPath>
  </defs>
  <g id="Group_498" data-name="Group 498" clip-path="url(#clip-path)">
    <path id="Path_278" data-name="Path 278" d="M55.343,13.8a40.462,40.462,0,1,1-8.234-2.155" fill="none" stroke="#58232b" stroke-width="1"/>
    <path id="Path_279" data-name="Path 279" d="M49.386,12.058q1.561.329,3.076.776" fill="none" stroke="#58232b" stroke-width="1"/>
    <path id="Path_280" data-name="Path 280" d="M77.383,73.37s-9.065-18.423-15.34-31.3S44.7,6.975,43.961,4.993s-1.734-2.642-.743-3.138,1.238.5,3.88,5.7,31.731,62.5,34.4,67.623,3.828,6.688,2.176,7.431-2.89-2.807-3.55-4.293-.661-22.624-5.45-30.55S50.814,10.36,48.419,6.479s-3.88-5.2-2.89-5.862S47.594,2.1,50.9,7.057s16.762,25.6,22.459,33.936S93.006,70.222,94.328,72.369s1.9,3.055.908,3.716-1.982-.578-4.459-4.129S79.383,54.617,78.392,52.883s-10.4-21.468,8.339-22.046" fill="none" stroke="#58232b" stroke-linecap="round" stroke-width="1"/>
    <path id="Path_281" data-name="Path 281" d="M18.281,31.745c-.729,1.369-.413,2.56,1.983,3.633s3.385,2.229,3.879,1.239,1.35-2.23-1.073-3.468C20.14,31.651,18.942,30.506,18.281,31.745Z" fill="none" stroke="#58232b" stroke-linecap="round" stroke-width="1"/>
    <path id="Path_282" data-name="Path 282" d="M26.368,31.757s-1.557,3.126-2.636,6.016-2.979,5.119-1.163,5.945,2.478.33,4.459-4.954,3.42-6.915,1.652-7.679C26.7,30.232,26.368,31.757,26.368,31.757Z" fill="none" stroke="#58232b" stroke-linecap="round" stroke-width="1"/>
    <path id="Path_283" data-name="Path 283" d="M23.969,50.97c-.425-.911-.984-2.015-1.691-3.357-3.415-6.478-3.87-9.047-5.854-8.569-2.217.534-1.06,2.242-1.06,2.242s1.741,4.1,3.612,7.637c1.385,2.621,2.111,5.2,3.238,6.181" fill="none" stroke="#58232b" stroke-linecap="round" stroke-width="1"/>
    <path id="Path_284" data-name="Path 284" d="M32,68.323c3.053,3.136,10.436,2.89,13.322,0,3.064-3.069,2.233-4.789,5.2-6.358s8.01-1.321,8.505-6.44S54.163,50.488,54,46.607s.909-9.743-3.055-11.642S43.6,36.627,40.457,36.994s-8.835-.708-10.321,3.916-.33,7.1-4.294,8.792-5.153,7.292-1.156,9.291C31.127,62.213,27.742,63.947,32,68.323Z" fill="none" stroke="#58232b" stroke-linecap="round" stroke-width="1"/>
    <path id="Path_285" data-name="Path 285" d="M39.228,70.566c-.192.3-.381.6-.566.9-2.1,3.41-4.743,5.747-3.3,7.306s2.261,1.105,6.1-5.128c1.157-1.876,2.145-3.34,2.922-4.511" fill="none" stroke="#58232b" stroke-linecap="round" stroke-width="1"/>
    <path id="Path_286" data-name="Path 286" d="M31.09,28.948s-.837,4.5-1.19,8.55-1.872,7.483.512,8.039,3-.275,3.655-7.69,1.822-9.938-.485-10.427C31,26.875,31.09,28.948,31.09,28.948Z" fill="none" stroke="#58232b" stroke-linecap="round" stroke-width="1"/>
    <path id="Path_287" data-name="Path 287" d="M48.327,71.133a46.271,46.271,0,0,0,4.8-2.192c6.644-3.356,9.4-3.695,8.6-5.913-.9-2.479-2.612-1.311-2.612-1.311s-1.4.544-3.269,1.354" fill="none" stroke="#58232b" stroke-linecap="round" stroke-width="1"/>
    <path id="Path_288" data-name="Path 288" d="M44.607,68.925a1.611,1.611,0,0,0,.056.968,3.2,3.2,0,0,0,.663,1.246" fill="none" stroke="#58232b" stroke-linecap="round" stroke-width="1"/>
    <path id="Path_289" data-name="Path 289" d="M51.222,65.217c-1.815.919-3.651,1.509-4.936,2.158" fill="none" stroke="#58232b" stroke-linecap="round" stroke-width="1"/>
    <path id="Path_290" data-name="Path 290" d="M45.668,70.1s-1.03,3-1.68,5.751-2.048,4.954-.448,5.566,2.11.1,3.305-4.921,2.259-6.643.7-7.2C45.815,68.671,45.668,70.1,45.668,70.1Z" fill="none" stroke="#58232b" stroke-linecap="round" stroke-width="1"/>
    <path id="Path_291" data-name="Path 291" d="M22.555,53.18c-.461-.067-.974-.135-1.543-.2-5.126-.628-6.852-1.5-7.235.1-.428,1.794,1.011,1.78,1.011,1.78s3.1.689,5.9,1.029c.578.07,1.136.174,1.662.281" fill="none" stroke="#58232b" stroke-linecap="round" stroke-width="1"/>
    <path id="Path_292" data-name="Path 292" d="M51.929,41.958s2.022,2.448,4.026,4.437,3.154,4.334,4.511,3.29S61.657,47.94,58,44.295s-4.484-5.395-5.772-4.363C50.785,41.085,51.929,41.958,51.929,41.958Z" fill="none" stroke="#58232b" stroke-linecap="round" stroke-width="1"/>
    <path id="Path_293" data-name="Path 293" d="M31.383,64.177s.284,3.163.81,5.936.15,5.358,1.861,5.266,1.969-.767,1.012-5.842-.647-6.986-2.293-6.863C30.934,62.81,31.383,64.177,31.383,64.177Z" fill="none" stroke="#58232b" stroke-linecap="round" stroke-width="1"/>
    <path id="Path_294" data-name="Path 294" d="M52.65,61.285c-1.362,1.477-1.9,2.34-1.3,3.439,1.02,1.857,1.91,1.489,7.055-4.6s7.442-7.612,6.423-9.367c-1.139-1.962-2.422-.1-2.422-.1s-1.525,1.555-3.38,3.585" fill="none" stroke="#58232b" stroke-linecap="round" stroke-width="1"/>
    <path id="Path_295" data-name="Path 295" d="M47.093,34.582c-.777-1.017-1.987-2.378-3.727-4.241-5.441-5.823-6.687-8.283-8.55-7.477-2.082.9-.388,2.393-.388,2.393s3.017,3.753,5.995,6.935c1.238,1.323,2.263,2.668,3.178,3.731" fill="none" stroke="#58232b" stroke-linecap="round" stroke-width="1"/>
    <path id="Path_296" data-name="Path 296" d="M49.35,34.413a4.793,4.793,0,0,0,.429-1.51c.524-3.61,1.249-5.234-.149-5.614-1.544-.42-2.589.254-2.872,3.164-.229,2.35-.795,3.715-.421,4.294" fill="none" stroke="#58232b" stroke-linecap="round" stroke-width="1"/>
    <path id="Path_297" data-name="Path 297" d="M29.212,63.826c-.792-.651-1.917-.484-3.667.973-2.246,1.87-3.8,2.3-3.2,3.272s1.221,2.413,3.627.594c1.928-1.457,3.307-2.232,3.806-2.954" fill="none" stroke="#58232b" stroke-linecap="round" stroke-width="1"/>
    <path id="Path_298" data-name="Path 298" d="M55.071,76.679c.77-.986.772-2-.7-3.258s-1.954-2.355-2.488-1.635-1.366,1.58.1,2.976C53.75,76.451,54.375,77.571,55.071,76.679Z" fill="none" stroke="#58232b" stroke-linecap="round" stroke-width="1"/>
    <circle id="Ellipse_83" data-name="Ellipse 83" cx="1.472" cy="1.472" r="1.472" transform="translate(62.125 57.785)" fill="none" stroke="#58232b" stroke-linecap="round" stroke-width="1"/>
    <path id="Path_299" data-name="Path 299" d="M58.344,36.137a2.032,2.032,0,1,1-2.031-2.031A2.031,2.031,0,0,1,58.344,36.137Z" fill="none" stroke="#58232b" stroke-linecap="round" stroke-width="1"/>
    <circle id="Ellipse_84" data-name="Ellipse 84" cx="1.521" cy="1.521" r="1.521" transform="translate(18.777 62.668)" fill="none" stroke="#58232b" stroke-linecap="round" stroke-width="1"/>
    <path id="Path_300" data-name="Path 300" d="M41.532,51.8c.8-1.155-.413-3.55-2.725-3.8a6.415,6.415,0,0,0-4.046.645c-.743.346.692.759,1.13,1.584S39.138,55.264,41.532,51.8Z" fill="none" stroke="#58232b" stroke-linecap="round" stroke-width="1"/>
    <path id="Path_301" data-name="Path 301" d="M39.906,53.664c-1.05-1.521.544-4.676,3.589-5a8.459,8.459,0,0,1,5.328.849c.979.456-.91,1-1.488,2.087S43.06,58.231,39.906,53.664Z" fill="none" stroke="#58232b" stroke-linecap="round" stroke-width="1"/>
  </g>
</svg>
