<svg xmlns="http://www.w3.org/2000/svg" width="536.157" height="432.551" viewBox="0 0 536.157 432.551">
  <g id="Group_756" data-name="Group 756" transform="translate(-546.073 -2266.817)">
    <g id="Group_757" data-name="Group 757">
      <path id="Path_665" data-name="Path 665" d="M96.2,132.95c-.7-1-.929-1.7-.617-2.207a2.517,2.517,0,0,0,3.007-.74,2,2,0,0,0-.532-2.737,2.23,2.23,0,0,0-3.271.6c-1.023,1.437-.586,3.238,1.279,5.579l0,0" transform="translate(546.121 2266.854)" fill="#5e3136"/>
      <path id="Path_666" data-name="Path 666" d="M108.323,135.061c-1.049.339-.172.058-1.833.59a9.916,9.916,0,0,1-6.769.018,8.616,8.616,0,0,1-3.625-2.876l-.177.459a8.731,8.731,0,0,0,3.607,2.767c2.267,1.068,5.1.633,7.087,0,1.661-.532.507-.356,1.556-.695Z" transform="translate(546.121 2266.854)" fill="#5e3136"/>
      <path id="Path_667" data-name="Path 667" d="M113.233,127.5c-.044-1.207-.29-1.9-.85-2.132a2.5,2.5,0,0,1-2.872,1.141A2.024,2.024,0,0,1,108.269,124a2.21,2.21,0,0,1,3-1.408c1.7.565,2.447,2.267,2.375,5.228h0" transform="translate(546.121 2266.854)" fill="#5e3136"/>
      <path id="Path_668" data-name="Path 668" d="M104.733,136.1c.236.012.213.065,1.875-.467a9.65,9.65,0,0,0,5.458-3.9,8.26,8.26,0,0,0,1.161-4.409l.422.268a8.348,8.348,0,0,1-1.214,4.31c-1.172,2.169-3.715,3.439-5.706,4.077-.282.09-1.117.327-1.874.479Z" transform="translate(546.121 2266.854)" fill="#5e3136"/>
      <path id="Path_669" data-name="Path 669" d="M134.46,126.013a9.574,9.574,0,0,0-9.044-6.03,7.811,7.811,0,0,0-4.173-5.631,8.042,8.042,0,0,0-6.089-.25,12.269,12.269,0,0,0-6.243-7.8,12.039,12.039,0,0,0-9.567-.788,11.666,11.666,0,0,0-7.078,6.635c-.113.293-.208.59-.294.891a17.586,17.586,0,0,0-4.078,1.107,13.259,13.259,0,0,0-5.992,5.124,8.417,8.417,0,0,0-1.1,4.164,12.6,12.6,0,0,0,2.078,6.7,8.156,8.156,0,0,0-4.535,2.925,9.261,9.261,0,0,0-1.669,8.732,11.333,11.333,0,0,0,6.1,7.154,17.826,17.826,0,0,0,11.768.9c1.028-.232,3.577-.925,4.8-1.308l.059-.019.08-.025c3.018-.966,5.879-1.861,8.4-2.657q1.934-.609,3.708-1.171l-.042.018c.067-.021.194-.063.368-.121q1.107-.351,2.154-.686c4.437-1.421,8.058-2.634,10.893-3.763.72-.251,1.212-.425,1.355-.483,4.137-1.656,6.245-3.468,7.726-6.005a7.8,7.8,0,0,0,.949-5.158,8.815,8.815,0,0,0-.542-2.45M99.293,148.36h0c-.244.076-.58.185-.875.264a19.582,19.582,0,0,1-4.665.567,19.052,19.052,0,0,1-10.174-3.546,11.74,11.74,0,0,1-4.184-6.795,9.715,9.715,0,0,1,.351-5.77,4.9,4.9,0,0,1,3.223-2.8h0l.066-.008a4.575,4.575,0,0,1,.606-.031,5.7,5.7,0,0,1,3.713,1.67l.066.066.144-.116-.051-.074c-2.984-4.355-4.5-7.415-3.994-11.1a8.176,8.176,0,0,1,3.935-5.793,12.739,12.739,0,0,1,4.412-1.615l.04-.008c-.8,3.069-.2,6.52,1.776,10.062l.05-.027.178-.008c-3.448-5.908.025-12.24,3.892-13.687,2.485-.93,4.611-1.38,9.049.606l.155-.1a4.142,4.142,0,0,1-1.449-1.169,4.522,4.522,0,0,1-.684-3.761,12.4,12.4,0,0,1,3.944,1.283,12.072,12.072,0,0,1,6.168,7.782,5.292,5.292,0,0,1-.322,2.53,1.975,1.975,0,0,1-.429.617l0,0,.022.13.346-.2c.04-.023.094-.057.161-.1A6.8,6.8,0,0,1,125.167,120a9.752,9.752,0,0,0-3.715.979l.028.137a9.63,9.63,0,0,1,2.813-.759,7.587,7.587,0,0,1,3.105.547c.131.059.258.12.381.181a9.946,9.946,0,0,1,3.165,3.409,8.965,8.965,0,0,1,1.114,4.258,8.263,8.263,0,0,1-.71,3.752c-.789,1.686-1.577,2.446-3.408,4.059a23.673,23.673,0,0,1-5.255,3.511,58.618,58.618,0,0,1-8.981,3.718q-2.735.873-5.874,1.86c-2.562.808-5.467,1.73-8.537,2.713" transform="translate(546.121 2266.854)" fill="#5e3136"/>
      <path id="Path_670" data-name="Path 670" d="M276.152,431.1c-7.93-9.2-23.791-32.039-36.8-48.851s-24.743-32.991-33.625-40.921-13.958-13.324-18.4-16.178-17.447-5.393-29.5-10.469S133.722,302,129.915,298.19s-5.393-6.027-11.42-8.882-12.689-6.662-21.253-10.151-17.447-6.027-25.061-10.468-16.812-8.882-14.909-19.668,8.882-19.35,14.275-22.839,13.323-8.565,19.35-8.248,10.786,4.441,8.565,13.006-5.71,18.081-11.1,20.936-8.248,4.759-11.1,4.759-3.807-3.807-.317-4.759,7.8,2.88,7.93,7.3a7.822,7.822,0,0,1-4.758,7.3" transform="translate(546.121 2266.854)" fill="none" stroke="#573335" stroke-linecap="round" stroke-miterlimit="10" stroke-width="2"/>
      <path id="Path_671" data-name="Path 671" d="M62.1,236.425s-12.759-4.216-19.737-9.926-11.42-13.958-6.979-24.743S42.8,186.847,46.23,183.675s9.773-6.027,16.752-8.882,14.274-6.345,16.178,1.586,2.22,16.495-3.49,21.888-7.93,9.833-13.957,11.1-9.389-6.137-4.695-6.24,6.719,8.9,6.638,13.219c-.049,2.561-.357,6.027-4.164,7.93" transform="translate(546.121 2266.854)" fill="none" stroke="#573335" stroke-linecap="round" stroke-miterlimit="10" stroke-width="2"/>
      <path id="Path_672" data-name="Path 672" d="M41.173,189.2s-10.23-10.822-14.037-17.691-6.979-16.068-4.441-24.95,7.931-16.495,13.958-15.544,13.323,8.565,13.323,15.227,1.9,17.447-2.855,22.522-8.248,5.076-8.248,5.076" transform="translate(546.121 2266.854)" fill="none" stroke="#573335" stroke-linecap="round" stroke-miterlimit="10" stroke-width="2"/>
      <path id="Path_673" data-name="Path 673" d="M35.736,128.977s-11.454-4.622-16.213-10.649-6.978-12.689-3.489-16.178a8.835,8.835,0,0,1,6.384-2.617" transform="translate(546.121 2266.854)" fill="none" stroke="#573335" stroke-linecap="round" stroke-miterlimit="10" stroke-width="2"/>
      <path id="Path_674" data-name="Path 674" d="M88.359,251.876s5.274,17.645,24.743,8.882c17.245-7.762,55.513-23.791,65.664-27.6s24.426-10.468,21.571-23.474-9.834-26.963-23.474-57.1S115.322,14.915,115.322,14.915,112.15-5.07,86.138,2.861,14.33,24.749,14.33,24.749s-22.088,1.9-9.4,32.99,31.722,73.277,31.722,73.277,9.516,3.49,4.758-7.93S23.012,79.31,16.985,64.718s-18.081-32.039-.951-36.8S92.166,6.033,92.166,6.033s12.054-5.393,18.4,8.882,83.111,189.7,83.111,189.7,7.3,11.737-7.93,18.4-69.788,28.867-69.788,28.867-8.3,4.873-15.1.872c-6.269-3.687-2.462-12.133,4-7.851,4.305,2.852,12.055,13.006,12.055,26.646s-5.988,26.448-8.526,32.476" transform="translate(546.121 2266.854)" fill="none" stroke="#573335" stroke-linecap="round" stroke-miterlimit="10" stroke-width="2"/>
      <path id="Path_675" data-name="Path 675" d="M73.645,200.275C78.253,211.254,82,220.156,82,220.156" transform="translate(546.121 2266.854)" fill="none" stroke="#573335" stroke-linecap="round" stroke-miterlimit="10" stroke-width="2"/>
      <path id="Path_676" data-name="Path 676" d="M57,177.347l-6.982-15.554s3.891-8.888,7-1.275c.852,2.086,3.113,7.509,5.947,14.282" transform="translate(546.121 2266.854)" fill="none" stroke="#573335" stroke-linecap="round" stroke-miterlimit="10" stroke-width="2"/>
      <line id="Line_95" data-name="Line 95" x1="7.364" y1="17.7" transform="translate(614.281 2472.818)" fill="none" stroke="#573335" stroke-linecap="round" stroke-miterlimit="10" stroke-width="2"/>
      <path id="Path_677" data-name="Path 677" d="M179.083,248.7s19.985,18.716,41.873,14.592S254.9,247.118,258.7,236.333s-6.978-21.888-9.833-5.71,20.3,40.921,38.7,58.05,37.115,35.37,40.921,33.625-3.425-6.737-3.425-6.737c-9.516-8.248-44.792-37.039-57.48-57.975s-12.372-19.667-13.958-30.77-9.2-25.377-14.592-36.8-11.1-26.012-20.3-34.26-17.447-13.957-24.108-24.425-11.737-15.861-20.3-25.695-16.5-23.474-18.082-24.108c-1.116-.447-5.691.521-8.634,5.781" transform="translate(546.121 2266.854)" fill="none" stroke="#573335" stroke-linecap="round" stroke-miterlimit="10" stroke-width="2"/>
      <path id="Path_678" data-name="Path 678" d="M214.929,277.254s2.855,12.689,0,21.888S206.681,315,200.337,317.223" transform="translate(546.121 2266.854)" fill="none" stroke="#573335" stroke-linecap="round" stroke-miterlimit="10" stroke-width="2"/>
      <rect id="Rectangle_432" data-name="Rectangle 432" width="330.6" height="432.104" transform="translate(546.121 2266.854)" fill="none"/>
      <rect id="Rectangle_427" data-name="Rectangle 427" width="181.047" height="172.989" transform="translate(842.355 2441.8) rotate(-27)" fill="none"/>
    </g>
    <g id="Group_758" data-name="Group 758" transform="translate(843.7 2302.538)">
      <path id="Path_643" data-name="Path 643" d="M1,22.282C52.523-11.942,110.208-.192,118.138,24.576S78.021,63.235,79.911,49.585,145,30.432,158.123,57.9c11.6,24.288-13.683,39.923-13.564,58.4.083,12.729,9.921,20.619,14.246,21.671" transform="translate(-1.345 139.262) rotate(-27)" fill="none" stroke="#573335" stroke-linecap="round" stroke-miterlimit="10" stroke-width="2"/>
      <path id="Path_644" data-name="Path 644" d="M139.806,146.9c7.927,1.068,28.183,7.233,34.789,12.077s7.046,15.853,2.2,12.33-4.844-27.743-2.2-37.871" transform="translate(-1.345 139.262) rotate(-27)" fill="none" stroke="#573335" stroke-linecap="round" stroke-miterlimit="10" stroke-width="2"/>
    </g>
  </g>
</svg>
