<svg xmlns="http://www.w3.org/2000/svg" xmlns:xlink="http://www.w3.org/1999/xlink" width="101" height="101" viewBox="0 0 101 101"><defs><clipPath id="a"><rect width="101" height="101" fill="none"/></clipPath></defs><g clip-path="url(#a)"><circle cx="50" cy="50" r="50" transform="translate(0.5 0.5)" fill="none" stroke="#5e3136" stroke-miterlimit="10" stroke-width="1"/><path d="M58.642,25.571a2.213,2.213,0,0,1,0-3.06c1.4-1.662,2.156-2.964,1.574-4.2-.98-2.076-3.847-.175-6.033-.438S49.723,16.39,47.8,16.74a12.49,12.49,0,0,0-5.772,2.973c-.961,1.136-.612,2.273,3.411.349s7.257.875,8.656,1.662,2.886.612,3.41,0S56.631,20.5,54.882,20.5s-8.132.437-7.695,3.759.787,8.744-.349,12.592-1.924,5.683,2.273,5.946,8.132-.525,8.219-2.012S54.653,38.425,51.4,38.6s-5.088.625-7.1,4.247-6.3,11.93-6.121,19.187.506,18.1,11.008,19.324,12.338-4.984,13.388-12.766S63.3,55.581,61,50.579c-1.624-3.533-3.673-5.931-4.146-7.04-4.609-10.808,2.572-13.509,4.758-12.372s3.235,4.2,3.235,8.132-3.585,5.771-6.558-.262S57.931,27.83,60.3,26.708s4.091.249,5.946,4.022a16.922,16.922,0,0,1,.612,13.553c-2.1,5.946-3.148,7.17-2.361,13.378a43.416,43.416,0,0,1-1.661,18.363c-1.749,4.984-3.2,5.9-5.421,7.082-2.8,1.487-10.056,2.1-14.185-1.049-3.783-2.884-5.771-2.886-7.17-2.623a7.691,7.691,0,0,0-3.041,1.923" fill="none" stroke="#5e3136" stroke-linecap="round" stroke-miterlimit="10" stroke-width="1"/><path d="M43.1,28.6a21.8,21.8,0,0,0-2.168-3.3.346.346,0,0,0-.546,0,20.019,20.019,0,0,0-2.1,3.166c-.725,1.494-1.585,5.852,2.376,5.852S43.821,30.092,43.1,28.6Z" fill="none" stroke="#5e3136" stroke-linecap="round" stroke-miterlimit="10" stroke-width="1"/></g></svg>