<svg xmlns="http://www.w3.org/2000/svg" xmlns:xlink="http://www.w3.org/1999/xlink" width="101" height="101" viewBox="0 0 101 101"><defs><clipPath id="a"><rect width="101" height="101" fill="none"/></clipPath></defs><g clip-path="url(#a)"><circle cx="50" cy="50" r="50" transform="translate(0.5 0.5)" fill="none" stroke="#5e3136" stroke-miterlimit="10" stroke-width="1"/><path d="M12.424,46.376s4.671-.7,6.6,2.1,1.81,6.189,6.13,8.525a72.021,72.021,0,0,0,23.3,8.291c11.794,2.1,20.669,2.393,26.917-.643s3.97-11.214,2.335-13.927-4.612-5.107-14.772-9.194-16.991-7.3-21.019-7.415a19.436,19.436,0,0,0-13.6,4.32,18.068,18.068,0,0,0-6.714,9.109c-.467,1.051-1.226,4.554,6.773,1.576s8.933-5.2,16.056-7.006,11.6-1.518,6.966-3.27a23.082,23.082,0,0,0-14.556-.525,30.164,30.164,0,0,0-10.51,5.838c-2.043,1.927-3.269,3.971-3.094,4.846s.817,2.511,7.065,2.336,10.509-4.262,15.18-6.131S58.55,42.23,63.1,43.573s10.685,4.029,6.54,4.438-9.7,2.1-15.971,3.386S40.508,53.85,39.516,53.558s-.351-2.336,4.437-4.379a36.352,36.352,0,0,1,15.415-2.628c5.6.117,11.5,1.051,14.071,2.92s4.613,4.145,7.649,8.874,5.488,2.978,5.488,2.978" fill="none" stroke="#5e3136" stroke-linecap="round" stroke-miterlimit="10" stroke-width="1"/><path d="M72.378,49.471S60.467,52.157,57.9,54.726s1.284,1.868,7.24,0S74.922,50.716,72.378,49.471Z" fill="none" stroke="#5e3136" stroke-linecap="round" stroke-miterlimit="10" stroke-width="1"/></g></svg>