<?xml version="1.0" encoding="UTF-8"?> <svg xmlns="http://www.w3.org/2000/svg" version="1.1" viewBox="0 0 219.1 185"><defs><clipPath id="clip-path"><rect width="217.9" height="179.7" fill="#d4e0e3" data-name="Rectangle 430"></rect></clipPath><clipPath id="clip-path-2"><rect width="116.4" height="76.77" fill="#cca453" data-name="Rectangle 431"></rect></clipPath></defs><g transform="translate(-16.38 -255)" data-name="Group 760"><g transform="matrix(.839 -.545 .545 .839 0 336.6)" data-name="Group 608"><g clip-path="url(#clip-path)" data-name="Group 605"><path d="m1.6 51.59c-15.08-58.61 79.23-61.84 158.5-36.71s67.63 85.02 21.26 131.4-138 67.51-179.7-94.69" fill="#d4e0e3" data-name="Path 659"></path></g></g><path id="Icon_awesome-facebook-f" transform="translate(157 331.8)" d="m24.24 25.43 1.256-8.182h-7.851v-5.309c0-2.238 1.1-4.42 4.612-4.42h3.569v-6.966a43.52 43.52 0 0 0-6.335-0.553c-6.465 0-10.69 3.919-10.69 11.01v6.236h-7.191v8.182h7.191v19.78h8.84v-19.78z" fill="#a56559" stroke="#a56559" data-name="Icon awesome-facebook-f"></path><g transform="translate(17.4 255)" data-name="Group 610"><g clip-path="url(#clip-path-2)" data-name="Group 609"><path transform="translate(.001)" d="m88.13 72.45c20.96-6.554 32.32-22.42 27.03-34.66s-22.99-4.1-34.42-13.85-32.41-29.86-52.72-22.26-36.67 34.04-22.96 56.55 62.11 20.77 83.07 14.22" fill="#cca453" data-name="Path 660"></path></g></g></g></svg> 