<svg id="icon3" xmlns="http://www.w3.org/2000/svg" xmlns:xlink="http://www.w3.org/1999/xlink" width="221.067" height="253.583" viewBox="0 0 221.067 253.583">
  <defs>
    <clipPath id="clip-path">
      <rect id="Rectangle_403" data-name="Rectangle 403" width="221.067" height="253.583" fill="none" stroke="#5e3136" stroke-width="1"/>
    </clipPath>
  </defs>
  <g id="Group_540" data-name="Group 540" clip-path="url(#clip-path)">
    <path id="Path_546" data-name="Path 546" d="M123.773,201.56S157.512,162.8,161.2,158.488s4.758-5.837,2.089-20.893,19.16-27.908,25.222-30.092,21.914-7.065,22.756,10.159c.578,11.85-7.9,26.7-13.981,33.179-5.226,5.561-11.769,8.832-12.564,7.107s5.59-6.9,9.054-12.391c10.693-16.942,15.795-31,10.224-34.954-8.271-5.872-23.245,6.056-23.245,6.056" fill="none" stroke="#5e3136" stroke-linecap="round" stroke-miterlimit="10" stroke-width="2"/>
    <path id="Path_547" data-name="Path 547" d="M131.779,149.7c-.327,1.52-.717,3.188-1.18,5.018-5.861,23.207-10.107,37.17-12.216,42.044-3.065,7.085-6.678,8.6-12.026,7S99.148,198,99.119,182.728" fill="none" stroke="#5e3136" stroke-linecap="round" stroke-miterlimit="10" stroke-width="2"/>
    <path id="Path_548" data-name="Path 548" d="M170.564,156.382c-1.8.506-7.532,8.514-18.386,23.623s-29.095,44.137-35.107,49.278-11.1,9.522-15.538,6.758-.967-18.43,8.71-23.892,26.155-10.821,32.083-8.762-23.694,3.117-32.4,5.1S97.8,211.1,99.148,198s26.665-44.83,33.773-54.178S169.869,67.2,171.437,62.809s-1.532-5.77-10.4,3.574-24.437,35.456-28.972,46.93-5.031,14.775-3.132,17.97c1.75,2.944,6.663.66,2.846,18.42" fill="none" stroke="#5e3136" stroke-linecap="round" stroke-miterlimit="10" stroke-width="2"/>
    <path id="Path_549" data-name="Path 549" d="M155.741,87.886s-6.179,17.783-13.109,29.362" fill="none" stroke="#5e3136" stroke-linecap="round" stroke-miterlimit="10" stroke-width="2"/>
    <path id="Path_550" data-name="Path 550" d="M83.7,252.418c2.006-1.768-7.734-14.988-10.44-21.948s3.866-8.894,5.22-15.854-.967-15.858-9.087-24.363-8.12-6.958-8.894-4.638-8.12,10.084-8.12,18.189-.677,13.8,8.6,19.413.87-6.377,1.74-14.594,3.19-4.737,3.19-1.257,1.45,18.851,4.64,26.391S81.693,254.186,83.7,252.418Z" fill="none" stroke="#5e3136" stroke-linecap="round" stroke-miterlimit="10" stroke-width="2"/>
    <path id="Path_551" data-name="Path 551" d="M43.073,196.406c-6.09-3.77-13.63-4.737-22.621-4.253s-20.01-4.447-19.43-19.528,0-12.982,6.09-9.826,17.11,5.782,18.27,11.429,2.3,11.158-3.346,8.838-8.254-8.991-10.864-11.311,1.74,8.479,7.25,12.795,10.441,4.606,14.791,5.476" fill="none" stroke="#5e3136" stroke-linecap="round" stroke-miterlimit="10" stroke-width="2"/>
    <path id="Path_552" data-name="Path 552" d="M213.4,199.489a10.723,10.723,0,0,0-4.64,8.41c-.29,5.8-4.06,15.081-21.751,13.921s-17.342-2.32-11.281-9.861,8.132-13.63,16.957-12.47,9.115,4.64,5.635,6.96-11.311,8.12-13.631,8.99,2.651,2.031,8-1.16,12.3-10.145,16.945-14.932,10.15-8.848,10.44-6.528" fill="none" stroke="#5e3136" stroke-linecap="round" stroke-miterlimit="10" stroke-width="2"/>
    <path id="Path_553" data-name="Path 553" d="M52.367,208.4a88.815,88.815,0,0,1-23.761-60.59c0-16.516,5.507-33.675,13.336-46.937" fill="none" stroke="#5e3136" stroke-linecap="round" stroke-miterlimit="10" stroke-width="2"/>
    <path id="Path_554" data-name="Path 554" d="M100.415,235.257A88.545,88.545,0,0,1,73.058,224.95" fill="none" stroke="#5e3136" stroke-linecap="round" stroke-miterlimit="10" stroke-width="2"/>
    <path id="Path_555" data-name="Path 555" d="M171.827,218.653a88.737,88.737,0,0,1-54.093,18.286,89.876,89.876,0,0,1-10.076-.564" fill="none" stroke="#5e3136" stroke-linecap="round" stroke-miterlimit="10" stroke-width="2"/>
    <path id="Path_556" data-name="Path 556" d="M206.256,137.343a89.956,89.956,0,0,1,.608,10.466c0,19.466-5.441,36.347-16.03,51.006" fill="none" stroke="#5e3136" stroke-linecap="round" stroke-miterlimit="10" stroke-width="2"/>
    <path id="Path_557" data-name="Path 557" d="M166.886,73.446a89.564,89.564,0,0,1,29.131,31.714" fill="none" stroke="#5e3136" stroke-linecap="round" stroke-miterlimit="10" stroke-width="2"/>
    <path id="Path_558" data-name="Path 558" d="M74.468,69.867a89.278,89.278,0,0,1,84.249-1.227" fill="none" stroke="#5e3136" stroke-linecap="round" stroke-miterlimit="10" stroke-width="2"/>
    <path id="Path_559" data-name="Path 559" d="M99.069,198.211a53.775,53.775,0,0,1-28.895-75.43" fill="none" stroke="#5e3136" stroke-linecap="round" stroke-miterlimit="10" stroke-width="2"/>
    <path id="Path_560" data-name="Path 560" d="M165.458,172.525A53.965,53.965,0,0,1,141,196.257" fill="none" stroke="#5e3136" stroke-linecap="round" stroke-miterlimit="10" stroke-width="2"/>
    <path id="Path_561" data-name="Path 561" d="M152.476,106.37a48.78,48.78,0,0,1,13.68,17.936" fill="none" stroke="#5e3136" stroke-linecap="round" stroke-miterlimit="10" stroke-width="2"/>
    <path id="Path_562" data-name="Path 562" d="M39.094,133.025s-3.867-18.989,1.838-30.458S68.868,89.33,71.962,84.214s-8.121-11.124-16.666,0,4.147,20.044,6.032,20.947c22.378,10.722,23.007-9.836,56.407-11.084a49.531,49.531,0,0,1,21.829,4.149" fill="none" stroke="#5e3136" stroke-linecap="round" stroke-miterlimit="10" stroke-width="2"/>
    <path id="Path_563" data-name="Path 563" d="M12.119,117.9c3.722-8.392,11.005-14.865,20.871-20.851s17.969-19.169,6.456-34.714-9.382-13.743-13.548-6S11.964,74.82,14.817,81.637s5.631,13.472,9.929,6.937,2.241-15.483,3.327-19.825,4.286,10.233,1.572,18.784-7.723,12.421-11.7,16.486" fill="none" stroke="#5e3136" stroke-linecap="round" stroke-miterlimit="10" stroke-width="2"/>
    <path id="Path_564" data-name="Path 564" d="M185.008,47.16a11.528,11.528,0,0,1,2.865-9.92c4.189-4.629,8.377-14.547-5.951-27.112S166.978-1.288,165.853,9.049s-4.179,16.54,3.41,22.366,10.455,3.4,9.573-1.007-2.424-14.769-3.527-17.194,3.558.473,5.2,6.96,1.642,17.062,1.529,24.228.99,14.44,2.974,12.9" fill="none" stroke="#5e3136" stroke-linecap="round" stroke-miterlimit="10" stroke-width="2"/>
    <path id="Path_565" data-name="Path 565" d="M179.212,75.776c5.083-3.146,11.376-3.953,18.878-3.55s16.7-3.711,16.217-16.3,0-10.835-5.083-8.2-14.28,4.825-15.248,9.538-1.918,9.312,2.792,7.376,6.889-7.5,9.068-9.44-1.453,7.077-6.051,10.678-8.713,3.844-12.344,4.57" fill="none" stroke="#5e3136" stroke-linecap="round" stroke-miterlimit="10" stroke-width="2"/>
  </g>
</svg>
