<?xml version="1.0" encoding="UTF-8"?> <svg xmlns="http://www.w3.org/2000/svg" xmlns:xlink="http://www.w3.org/1999/xlink" id="icon4" width="271.649" height="256.155" viewBox="0 0 271.649 256.155"><defs><clipPath id="clip-path"><rect id="Rectangle_404" data-name="Rectangle 404" width="271.649" height="256.155" fill="none" stroke="#5e3136" stroke-width="1"></rect></clipPath></defs><g id="Group_542" data-name="Group 542" clip-path="url(#clip-path)"><path id="Path_566" data-name="Path 566" d="M116.379,92.173c6.376-.64,12.187-1.122,16.806-1.428,14.857-.981,41.754-.776,56.624,1.823,14.436,2.522,23.267,9.53,9.67,19.623-7.4,5.491-20.182,10.511-26.349,12.054" fill="none" stroke="#5e3136" stroke-linecap="round" stroke-miterlimit="10" stroke-width="2"></path><path id="Path_567" data-name="Path 567" d="M31.8,155.547c16.746,2.636,8.176-11.119,27.658-11.68s57.606-4.765,79.471-10.092,25.51-9.25,25.51-7.148-11.353,9.531-23.828,12.9S95.06,149.754,71.233,149.614s-22.261-5.9-25.586-5.689C.878,146.764-13.8,132.561,18.159,117.517c14.883-7.007,34.806-14.577,53.448-18.642" fill="none" stroke="#5e3136" stroke-linecap="round" stroke-miterlimit="10" stroke-width="2"></path><path id="Path_568" data-name="Path 568" d="M88.817,128.27c-.018.531-3.829,6.066-12.292,8.122-7.386,1.794-13.53.9-16.926-.794-3.729-1.86-8.129-4.485-3.364-8.69s10.933-11.073,12.335-7.569,1.963,5.046-1.682,7.849-3.785,5.466-1.122,3.643,8.55-4.063,10.092-10.231.982-7.474.7-9.414,1.823-2.079.841-4.743a3.756,3.756,0,0,0-5.326-2.241,4.433,4.433,0,0,1-5.046.14c-1.682-1.121-1.682,2.8,1.4,3.924s3.224,3.459,0,2.92-3.784-2.5-4.765-4.041-.421,1.962-1.261,2.8-2.383,1.123-4.345-.14-.982,2.1,4.345,3.084,6.026,3.505,6.026,3.505" fill="none" stroke="#5e3136" stroke-linecap="round" stroke-miterlimit="10" stroke-width="2"></path><path id="Path_569" data-name="Path 569" d="M175.933,100.978s10.512,4.44,4.485,10.209-23.267,12.5-41.347,16.982-57.186,10.652-66.857,10.792,1.635-17.987,9.671-18.991" fill="none" stroke="#5e3136" stroke-linecap="round" stroke-miterlimit="10" stroke-width="2"></path><path id="Path_570" data-name="Path 570" d="M76.713,110.9a17.043,17.043,0,0,0,2.649,4.761c6.307,8.306,11.353,14.332,11.353,14.332s2.8,5.186,5.887,2.944-1.262-5.046-4.625-8.27-10.653-9.3-11.353-13.478-1.682-8.387,1.261-10.209,5.466-1.541,4.345-2.8-7.008,1.121-7.709,2.8a22.587,22.587,0,0,0-2,4.019" fill="none" stroke="#5e3136" stroke-linecap="round" stroke-miterlimit="10" stroke-width="2"></path><path id="Path_571" data-name="Path 571" d="M109.217,129.991s1.962.841,6.027,0,6.728-3.224,4.485-4.625-2.478-1.213-6.307,0S105.573,128.309,109.217,129.991Z" fill="none" stroke="#5e3136" stroke-linecap="round" stroke-miterlimit="10" stroke-width="2"></path><path id="Path_572" data-name="Path 572" d="M144.817,124.384a13.582,13.582,0,0,1-7.989-1.121c-4.065-1.962-3.925-1.659-8.83-1.951s-7.148-2.674-6.588-6.458,2.243-3.178,6.588-2.22,8.83,4.361,12.9,5.6,6.447.842,8.97,1.672,3.083,2.374,8.55.061,6.587-4.416,7.288-3.014" fill="none" stroke="#5e3136" stroke-linecap="round" stroke-miterlimit="10" stroke-width="2"></path><path id="Path_573" data-name="Path 573" d="M156.451,110.368a56.06,56.06,0,0,1-15.137,1.543c-9.812-.141-13.456-.422-14.577-2.945s6.027-1.4,9.951,0,6.644,3.224,6.826-.14-1.78-5.046-6.685-4.2-6.588,2.663-7.709.561-5.795-.981-8.574.981-5.442,5.874-4.181,9.495S122,118.552,122,118.552" fill="none" stroke="#5e3136" stroke-linecap="round" stroke-miterlimit="10" stroke-width="2"></path><path id="Path_574" data-name="Path 574" d="M116.379,111.187a20.042,20.042,0,0,0-7.722-2.22c-5.113-.075-9.672,1.927-13.876,6.692a24.475,24.475,0,0,0-4.072,7.818" fill="none" stroke="#5e3136" stroke-linecap="round" stroke-miterlimit="10" stroke-width="2"></path><path id="Path_575" data-name="Path 575" d="M110.058,95.511c.9,1.59-3.49,3.644-7.211,7.148s-6.665,7.148-7.786,4.625S92.4,102.1,95.9,99.576,107.675,91.306,110.058,95.511Z" fill="none" stroke="#5e3136" stroke-linecap="round" stroke-miterlimit="10" stroke-width="2"></path><path id="Path_576" data-name="Path 576" d="M95.528,108.124c-.639.282-12.274,3.834-13.923,0a6.114,6.114,0,0,1,6.066-8.408c4.727.421,7.95-2.289,8.231-.14" fill="none" stroke="#5e3136" stroke-linecap="round" stroke-miterlimit="10" stroke-width="2"></path><path id="Path_577" data-name="Path 577" d="M87.72,91.151a2.624,2.624,0,0,1-.088,1.557c-.764,3.224-4.152,8.269-4.152,8.269" fill="none" stroke="#5e3136" stroke-linecap="round" stroke-miterlimit="10" stroke-width="2"></path><path id="Path_578" data-name="Path 578" d="M73.573,103.5a8.2,8.2,0,0,1-.518-8.406c3.924-8.69,6.728-12.334,8.83-11.073a13.3,13.3,0,0,1,1.892,1.437" fill="none" stroke="#5e3136" stroke-linecap="round" stroke-miterlimit="10" stroke-width="2"></path><path id="Path_579" data-name="Path 579" d="M123.666,82.822a16.47,16.47,0,0,1,2.791.7c6.027,2.176,8.129,3.437,4.9,4.839a25.278,25.278,0,0,1-13.081,1.84c-5.7-.579-6.179-3.1-10.495-1s-13.706,5.4-17.491,2.383" fill="none" stroke="#5e3136" stroke-linecap="round" stroke-miterlimit="10" stroke-width="2"></path><path id="Path_580" data-name="Path 580" d="M96.6,82.874a47.259,47.259,0,0,1,5.355-.257c1.9.045,4.525-.073,7.4-.178" fill="none" stroke="#5e3136" stroke-linecap="round" stroke-miterlimit="10" stroke-width="2"></path><path id="Path_581" data-name="Path 581" d="M125.918,91.294a8.6,8.6,0,0,0,8.387,2.115c5.186-1.4,9.727-4.345,9.209-8.269s-1.64-4.846-2.9-2.843-1.682,4.07-1.262,5.208" fill="none" stroke="#5e3136" stroke-linecap="round" stroke-miterlimit="10" stroke-width="2"></path><path id="Path_582" data-name="Path 582" d="M97.957,130.426c1.879.384,3.133.117,5.722-.435,3.926-.837,4.977-3.224,8.06-5.046s4.345-5.326,4.626-9.287-3.785-3.608-8.971-1.365-9.739,12.334-9.739,12.334" fill="none" stroke="#5e3136" stroke-linecap="round" stroke-miterlimit="10" stroke-width="2"></path><path id="Path_583" data-name="Path 583" d="M84.308,109.892c.249,4.064,1.334,6.328,1.361,8.345" fill="none" stroke="#5e3136" stroke-linecap="round" stroke-miterlimit="10" stroke-width="2"></path><path id="Path_584" data-name="Path 584" d="M117.763,108.947s-.417-5.166-.557-8.67,1.428-6.117-.828-8.1c-.988-.871-6.909-1.219-13.364-.912" fill="none" stroke="#5e3136" stroke-linecap="round" stroke-miterlimit="10" stroke-width="2"></path><path id="Path_585" data-name="Path 585" d="M136.688,124.384s-.981,1.635-5.186,2.99-26.861,6.265-30.18,6.123a21.814,21.814,0,0,1-4.72-.563" fill="none" stroke="#5e3136" stroke-linecap="round" stroke-miterlimit="10" stroke-width="2"></path><path id="Path_586" data-name="Path 586" d="M96.6,80.7a34.346,34.346,0,0,0,5.354-3.411c1.514-1.4,5.155-3.784,1.722-3.784a6.123,6.123,0,0,0-6.023,4.906c-.212,2.1.349,4.457-2.314,2.859s-7.814-3.7-7.621-7.765,1.033-7.288,1.594-5.606,1.261,3.784,1.261,3.784.14-5.536.841-4.24a30.251,30.251,0,0,1,1.542,4.941s.981-6.307,1.822-5.747S96.6,71.824,96.6,76.309s.14,8.41-2.243,9.812,1.262.981.841,2.382-4.589,3.754-7.48,2.648S81.391,89.73,81.147,87.5s1.579-.964,4.522-1.665S84.705,84.5,84.136,82.3s.973-4.629,1.533-3.276,1.157-.652,2.051,0,3.244,3.738,7.325,4.018" fill="none" stroke="#5e3136" stroke-linecap="round" stroke-miterlimit="10" stroke-width="2"></path><path id="Path_587" data-name="Path 587" d="M110.177,83.775s-1.843-1.2,0-4.755,4.032-4.533,3.989-1.59-.184,2.243,1.5.141,1.963-1.963,1.823-.281-.421-.14,1.962-.981,5.606-4.311,4.765-.614-1.969,3.417.137,3.838,2.971,1.818-.685,3.291S113.8,87.316,110.177,83.775Z" fill="none" stroke="#5e3136" stroke-linecap="round" stroke-miterlimit="10" stroke-width="2"></path><path id="Path_588" data-name="Path 588" d="M143.554,97.82c-7.287-.346-21.449.775-25.791,1.055" fill="none" stroke="#5e3136" stroke-linecap="round" stroke-miterlimit="10" stroke-width="2"></path><path id="Path_589" data-name="Path 589" d="M56.516,110.784s-15.7,4.069-25.649,12.2c-3.952,3.227-2.111,6.868,2.2,8.178,3.758,1.14,11.53,3.175,11.53,3.175" fill="none" stroke="#5e3136" stroke-linecap="round" stroke-miterlimit="10" stroke-width="2"></path><line id="Line_92" data-name="Line 92" x1="4.748" y2="0.936" transform="translate(87.322 92.803)" fill="none" stroke="#5e3136" stroke-linecap="round" stroke-miterlimit="10" stroke-width="2"></line><path id="Path_590" data-name="Path 590" d="M158.463,185.79c-6.314-1.094-12.075-1.99-16.661-2.624-14.749-2.04-41.592-3.758-56.61-2.229-14.58,1.485-23.888,7.844-11.049,18.881,6.988,6.007,19.381,11.928,25.422,13.906" fill="none" stroke="#5e3136" stroke-linecap="round" stroke-miterlimit="10" stroke-width="2"></path><path id="Path_591" data-name="Path 591" d="M238.295,255.046c-16.891,1.433-7.361-11.675-26.753-13.627s-57.118-8.869-78.547-15.744-24.783-11.05-24.933-8.953,10.643,10.318,22.845,14.564,44.705,13.461,68.481,15.024,22.625-4.293,25.927-3.846c44.451,6.031,60.105-7.087,29.3-24.376-14.345-8.052-33.676-17.027-51.979-22.413" fill="none" stroke="#5e3136" stroke-linecap="round" stroke-miterlimit="10" stroke-width="2"></path><path id="Path_592" data-name="Path 592" d="M183.374,223.764c-.02.532,3.385,6.324,11.68,8.98,7.239,2.317,13.431,1.863,16.939.417,3.853-1.588,8.429-3.893,3.977-8.427s-10.114-11.826-11.762-8.431-2.318,4.893,1.117,7.949,3.384,5.723.858,3.715-8.238-4.665-9.335-10.927-.445-7.525-.026-9.439-1.669-2.205-.5-4.791a3.756,3.756,0,0,1,5.473-1.856,4.427,4.427,0,0,0,5.022.5c1.758-1,1.478,2.916-1.678,3.815s-3.463,3.219-.209,2.913,3.954-2.224,5.042-3.691.28,1.987,1.058,2.886,2.3,1.289,4.344.171.828,2.167-4.554,2.765-6.262,3.064-6.262,3.064" fill="none" stroke="#5e3136" stroke-linecap="round" stroke-miterlimit="10" stroke-width="2"></path><path id="Path_593" data-name="Path 593" d="M98.431,190.316s-10.8,3.677-5.2,9.862,22.314,14.128,40.028,19.894,56.278,14.711,65.914,15.542-.345-18.058-8.289-19.634" fill="none" stroke="#5e3136" stroke-linecap="round" stroke-miterlimit="10" stroke-width="2"></path><path id="Path_594" data-name="Path 594" d="M196.688,207.3a17.039,17.039,0,0,1-2.983,4.56c-6.884,7.833-12.348,13.484-12.348,13.484s-3.166,4.972-6.082,2.515,1.619-4.942,5.205-7.918,11.289-8.511,12.287-12.632,2.277-8.245-.529-10.273-5.342-1.928-4.133-3.106,6.91,1.619,7.488,3.346a22.543,22.543,0,0,1,1.7,4.152" fill="none" stroke="#5e3136" stroke-linecap="round" stroke-miterlimit="10" stroke-width="2"></path><path id="Path_595" data-name="Path 595" d="M162.9,224.023s-2.017.7-6.011-.431-6.481-3.7-4.144-4.934,2.559-1.032,6.291.451S166.659,222.606,162.9,224.023Z" fill="none" stroke="#5e3136" stroke-linecap="round" stroke-miterlimit="10" stroke-width="2"></path><path id="Path_596" data-name="Path 596" d="M127.795,215.886a13.577,13.577,0,0,0,8.049-.547c4.194-1.667,4.032-1.374,8.946-1.315s7.321-2.157,7.033-5.971-2.01-3.331-6.412-2.685-9.119,3.719-13.263,4.667-6.49.379-9.066,1.027-3.245,2.147-8.533-.55-6.255-4.875-7.054-3.527" fill="none" stroke="#5e3136" stroke-linecap="round" stroke-miterlimit="10" stroke-width="2"></path><path id="Path_597" data-name="Path 597" d="M117.192,201.076A56.039,56.039,0,0,0,132.18,203.7c9.8.562,13.452.542,14.75-1.9s-5.91-1.828-9.925-.71-6.858,2.741-6.8-.627,2.136-4.907,6.969-3.718,6.38,3.128,7.649,1.11,5.85-.563,8.482,1.593,5.008,6.246,3.492,9.768-5.828,2.485-5.828,2.485" fill="none" stroke="#5e3136" stroke-linecap="round" stroke-miterlimit="10" stroke-width="2"></path><path id="Path_598" data-name="Path 598" d="M157.1,204.755a20.027,20.027,0,0,1,7.861-1.662c5.105.291,9.509,2.613,13.363,7.666a24.463,24.463,0,0,1,3.5,8.089" fill="none" stroke="#5e3136" stroke-linecap="round" stroke-miterlimit="10" stroke-width="2"></path><path id="Path_599" data-name="Path 599" d="M164.529,189.572c-1.012,1.521,3.221,3.884,6.682,7.645s6.137,7.606,7.435,5.17,3.027-4.982-.287-7.749S167.206,185.548,164.529,189.572Z" fill="none" stroke="#5e3136" stroke-linecap="round" stroke-miterlimit="10" stroke-width="2"></path><path id="Path_600" data-name="Path 600" d="M178.12,203.19c.617.327,11.969,4.7,13.887.995a6.113,6.113,0,0,0-5.45-8.82c-4.744.082-7.766-2.852-8.2-.728" fill="none" stroke="#5e3136" stroke-linecap="round" stroke-miterlimit="10" stroke-width="2"></path><path id="Path_601" data-name="Path 601" d="M187.121,186.819a2.626,2.626,0,0,0-.024,1.559c.532,3.27,3.551,8.545,3.551,8.545" fill="none" stroke="#5e3136" stroke-linecap="round" stroke-miterlimit="10" stroke-width="2"></path><path id="Path_602" data-name="Path 602" d="M200.349,200.144a8.2,8.2,0,0,0,1.118-8.347c-3.294-8.949-5.83-12.784-8.017-11.676a13.251,13.251,0,0,0-1.99,1.3" fill="none" stroke="#5e3136" stroke-linecap="round" stroke-miterlimit="10" stroke-width="2"></path><path id="Path_603" data-name="Path 603" d="M151.862,175.943a16.439,16.439,0,0,0-2.834.5c-6.167,1.739-8.354,2.847-5.239,4.476a25.3,25.3,0,0,0,12.917,2.77c5.727-.17,6.385-2.652,10.539-.247s13.286,6.368,17.276,3.627" fill="none" stroke="#5e3136" stroke-linecap="round" stroke-miterlimit="10" stroke-width="2"></path><path id="Path_604" data-name="Path 604" d="M178.853,177.928a47.146,47.146,0,0,0-5.322-.639c-1.9-.091-4.509-.4-7.37-.707" fill="none" stroke="#5e3136" stroke-linecap="round" stroke-miterlimit="10" stroke-width="2"></path><path id="Path_605" data-name="Path 605" d="M149.01,184.231a8.6,8.6,0,0,1-8.517,1.511c-5.073-1.769-9.392-5.029-8.594-8.907s1.982-4.716,3.1-2.628,1.387,4.179.886,5.285" fill="none" stroke="#5e3136" stroke-linecap="round" stroke-miterlimit="10" stroke-width="2"></path><path id="Path_606" data-name="Path 606" d="M174.1,225.262c-1.9.249-3.133-.107-5.676-.843-3.857-1.115-4.734-3.571-7.68-5.609s-3.953-5.623-3.949-9.593,4.032-3.329,9.045-.721,8.833,13,8.833,13" fill="none" stroke="#5e3136" stroke-linecap="round" stroke-miterlimit="10" stroke-width="2"></path><path id="Path_607" data-name="Path 607" d="M189.184,205.756c-.539,4.036-1.783,6.217-1.954,8.226" fill="none" stroke="#5e3136" stroke-linecap="round" stroke-miterlimit="10" stroke-width="2"></path><path id="Path_608" data-name="Path 608" d="M155.883,202.422s.785-5.123,1.176-8.608-.989-6.2,1.4-8.025c1.048-.8,6.979-.721,13.4.046" fill="none" stroke="#5e3136" stroke-linecap="round" stroke-miterlimit="10" stroke-width="2"></path><path id="Path_609" data-name="Path 609" d="M135.9,216.467s.862,1.7,4.959,3.353,26.345,8.168,29.665,8.264a21.863,21.863,0,0,0,4.748-.224" fill="none" stroke="#5e3136" stroke-linecap="round" stroke-miterlimit="10" stroke-width="2"></path><path id="Path_610" data-name="Path 610" d="M179.008,175.761a34.36,34.36,0,0,1-5.1-3.784c-1.409-1.507-4.871-4.143-1.447-3.9a6.123,6.123,0,0,1,5.658,5.323c.061,2.112-.667,4.421,2.1,3.018s8.058-3.133,8.157-7.2-.51-7.343-1.19-5.706l-1.528,3.685s.256-5.532-.536-4.289a30.212,30.212,0,0,0-1.891,4.817s-.528-6.361-1.407-5.862-2.188,5.043-2.508,9.517-.741,8.378,1.536,9.946-1.329.888-1.01,2.316,4.31,4.073,7.273,3.176,6.414-.965,6.816-3.167-1.506-1.074-4.392-1.984,1.058-1.269,1.783-3.425-.639-4.687-1.295-3.377-1.108-.734-2.045-.147-3.5,3.5-7.593,3.484" fill="none" stroke="#5e3136" stroke-linecap="round" stroke-miterlimit="10" stroke-width="2"></path><path id="Path_611" data-name="Path 611" d="M165.249,177.857s1.924-1.068.34-4.743-3.7-4.809-3.865-1.87.022,2.25-1.505.032-1.817-2.1-1.8-.409.429-.11-1.888-1.119-5.284-4.7-4.709-.953,1.72,3.549-.41,3.818-3.094,1.6.448,3.332S161.382,181.13,165.249,177.857Z" fill="none" stroke="#5e3136" stroke-linecap="round" stroke-miterlimit="10" stroke-width="2"></path><path id="Path_612" data-name="Path 612" d="M130.953,189.481c7.293.175,21.339,2.306,25.65,2.9" fill="none" stroke="#5e3136" stroke-linecap="round" stroke-miterlimit="10" stroke-width="2"></path><path id="Path_613" data-name="Path 613" d="M216.842,208.631s15.367,5.181,24.712,14c3.711,3.5,1.615,7-2.784,8-3.83.869-11.728,2.343-11.728,2.343" fill="none" stroke="#5e3136" stroke-linecap="round" stroke-miterlimit="10" stroke-width="2"></path><line id="Line_93" data-name="Line 93" x2="4.669" y2="1.273" transform="translate(182.663 188.155)" fill="none" stroke="#5e3136" stroke-linecap="round" stroke-miterlimit="10" stroke-width="2"></line><path id="Path_614" data-name="Path 614" d="M237.9,95.914c-2.355,7.294-5.587,7.81-9.472,9.093s6.781,1.495,8.1,10.12c1.825,11.971.936-5.347,8.124-6.991,7.968-1.823,1.691-1.927-.611-3.714-1.893-1.469-2.413-2.926-3.133-6.641C239.486,90.459,240.127,89.021,237.9,95.914Z" fill="none" stroke="#5e3136" stroke-linecap="round" stroke-miterlimit="10" stroke-width="2"></path><path id="Path_615" data-name="Path 615" d="M220.666,151.421c1.578,4.89,3.745,5.235,6.349,6.1s-4.545,1-5.426,6.784c-1.224,8.025-.628-3.584-5.446-4.686-5.342-1.222-1.134-1.292.409-2.49,1.269-.985,1.618-1.961,2.1-4.452C219.6,147.764,219.174,146.8,220.666,151.421Z" fill="none" stroke="#5e3136" stroke-linecap="round" stroke-miterlimit="10" stroke-width="2"></path><path id="Path_616" data-name="Path 616" d="M42.946,191.738c2.385,7.777,5.807,8.374,9.909,9.8s-7.218,1.481-8.748,10.611c-2.123,12.675-.91-5.687-8.512-7.544-8.427-2.059-1.764-2.072.706-3.932,2.031-1.529,2.607-3.067,3.429-7C41.35,185.924,40.692,184.389,42.946,191.738Z" fill="none" stroke="#5e3136" stroke-linecap="round" stroke-miterlimit="10" stroke-width="2"></path><path id="Path_617" data-name="Path 617" d="M48.466,47.663c-1.295,4.222-3.152,4.546-5.38,5.319s3.919.8,4.75,5.761c1.152,6.881.494-3.088,4.621-4.1,4.575-1.118.958-1.125-.384-2.135-1.1-.83-1.415-1.665-1.861-3.8C49.332,44.507,49.69,43.673,48.466,47.663Z" fill="none" stroke="#5e3136" stroke-linecap="round" stroke-miterlimit="10" stroke-width="2"></path><path id="Path_618" data-name="Path 618" d="M86.241,5.62c-2.934,7.568-6.264,7.9-10.316,9.01s6.8,2.023,7.5,11.237c.981,12.791,1.346-5.6,8.789-6.872,8.251-1.413,1.864-1.93-.35-3.971-1.82-1.678-2.243-3.254-2.7-7.233C88.255-.052,89.014-1.532,86.241,5.62Z" fill="none" stroke="#5e3136" stroke-linecap="round" stroke-miterlimit="10" stroke-width="2"></path><path id="Path_619" data-name="Path 619" d="M58.95,227.612c-.821,4.339-2.631,4.867-4.76,5.88s3.984.366,5.356,5.2c1.9,6.712.151-3.124,4.141-4.581,4.424-1.616.828-1.224-.617-2.08-1.187-.7-1.59-1.5-2.269-3.57C59.463,224.379,59.726,223.511,58.95,227.612Z" fill="none" stroke="#5e3136" stroke-linecap="round" stroke-miterlimit="10" stroke-width="2"></path></g></svg> 