<svg id="icon2" xmlns="http://www.w3.org/2000/svg" xmlns:xlink="http://www.w3.org/1999/xlink" width="237.978" height="225.472" viewBox="0 0 237.978 225.472">
  <defs>
    <clipPath id="clip-path">
      <rect id="Rectangle_402" data-name="Rectangle 402" width="237.978" height="225.472" fill="none" stroke="#5e3136" stroke-width="1"/>
    </clipPath>
  </defs>
  <g id="Group_538" data-name="Group 538" clip-path="url(#clip-path)">
    <path id="Path_491" data-name="Path 491" d="M179.1,131.9c5.849-.918,10.531-1.642,12.357-2.014,4.184-.853,6.406-1.163,6.176,9.671s-1.719,16.118.016,18.54,2.836,4.624,5.478,4.844" fill="none" stroke="#5e3136" stroke-linecap="round" stroke-miterlimit="10" stroke-width="2"/>
    <path id="Path_492" data-name="Path 492" d="M30.924,133.937a9.614,9.614,0,0,0-1.52,5.617c-.22,8.852-.22,19.421-.22,21.183s-3.523,2.862-3.3-1.762-.22-24.058-.22-24.058a6.638,6.638,0,0,1,.6-2.008" fill="none" stroke="#5e3136" stroke-linecap="round" stroke-miterlimit="10" stroke-width="2"/>
    <path id="Path_493" data-name="Path 493" d="M197.638,192.337c.9-2.374-.455-8.206-.455-15.968,0-10.348,2.422-15.413-3.964-14.312s-36.11,9.248-42.935,9.688-6.606-2.2-7.046-14.752,2.438-19.8-1.085-20.02" fill="none" stroke="#5e3136" stroke-linecap="round" stroke-miterlimit="10" stroke-width="2"/>
    <path id="Path_494" data-name="Path 494" d="M135.724,205.885c-7.65-.763-19.18-1.651-37.843-3.314-22.239-1.981-61.872-4.844-65.395-5.284s-3.743-3.083-3.523-9.248-.34-18.936-.06-21.137-3.463-2.422-3.463,1.541-2.642,27.523,0,27.3,1.542-31.32,6.386-30.413,93.137,6.413,101.724,7.734,12.551-2.213,12.331,4.948c-.111,3.581-1.266,11.213-1.239,17.589" fill="none" stroke="#5e3136" stroke-linecap="round" stroke-miterlimit="10" stroke-width="2"/>
    <path id="Path_495" data-name="Path 495" d="M1,129.509s5.505-3.562,13.651-.919,41.175,13.871,46.679,13.871S165.917,135.1,172.3,135.038s8.588-2.925,8.147-15.476,3.411-19.156.054-18.936-3.357,32.588-2.7,36.551" fill="none" stroke="#5e3136" stroke-linecap="round" stroke-miterlimit="10" stroke-width="2"/>
    <path id="Path_496" data-name="Path 496" d="M9.147,122.865V100.621c0-2.2,2.2-4.618,11.89-1.536s41.835,6.165,40.954,9.688-3.523,31.927-.661,33.688-1.321-33.468,3.523-33.908,97.982-7.277,105.248-7.932,10.128-2.637,10.569-8.582,3.3-23.559,0-24.44-3.053,67.318-3.053,67.318" fill="none" stroke="#5e3136" stroke-linecap="round" stroke-miterlimit="10" stroke-width="2"/>
    <path id="Path_497" data-name="Path 497" d="M174.5,67.591,68.376,72.443s-4.184.881-3.964,12.331.881,20.973-1.321,20.284-2.422-27.33-2.422-30.413S54.5,71.122,37.991,68.48s-27.083-8.147-27.744-4.624-1.321,24.22,0,27.083,17.835,5.284,25.321,7.046,23.56,7.612,31.707,7.108S172.743,99.086,174.5,97.544" fill="none" stroke="#5e3136" stroke-linecap="round" stroke-miterlimit="10" stroke-width="2"/>
    <path id="Path_498" data-name="Path 498" d="M33.52,67.674S31.165,50.1,36.669,51.916s3.3,4.454,9.248,4.014,6.165-4.152,9.468-4.168a7.1,7.1,0,0,1,6.826,6.6c.44,3.955-.881,4.673-3.3,3.173s-5.945-12.321.44-13.476,7.707,8.835,8.147,12.882" fill="none" stroke="#5e3136" stroke-linecap="round" stroke-miterlimit="10" stroke-width="2"/>
    <path id="Path_499" data-name="Path 499" d="M58.908,45.886s-4.934-2.507-8.632-1.626-3.478,3.191-5.019,3.8-4.4-3.49-7.266-1.992,3.3,3.773,2.862,4.947-4.584-3.89-7.8-1.908-6.9,5.533-2.743,17.885" fill="none" stroke="#5e3136" stroke-linecap="round" stroke-miterlimit="10" stroke-width="2"/>
    <path id="Path_500" data-name="Path 500" d="M55.22,70.981s.661-10.657,12.275-9.149c6.524.846,5.945-1.719,9.028-3.04s3.082-4.844,6.385-3.963S89.631,62.738,92,67.591s4.344,4.175,4.895,0A10.778,10.778,0,0,0,91.445,56.43c-4.354-2.262-7.374-1.656-7.374-1.656" fill="none" stroke="#5e3136" stroke-linecap="round" stroke-miterlimit="10" stroke-width="2"/>
    <path id="Path_501" data-name="Path 501" d="M42.192,55.531s2.184-4.372,5.927-4.519S53.3,52.393,53.3,52.393" fill="none" stroke="#5e3136" stroke-linecap="round" stroke-miterlimit="10" stroke-width="2"/>
    <path id="Path_502" data-name="Path 502" d="M68.6,61.654s0-7.872,7.264-2.972" fill="none" stroke="#5e3136" stroke-linecap="round" stroke-miterlimit="10" stroke-width="2"/>
    <path id="Path_503" data-name="Path 503" d="M24.67,64.957s-.822-5.792-3.684-5.825-8.481,6.447-12.665,2.7c-3.215-2.88-1.376-6.664-2.256-9.916S1.222,47.9,1.221,43.483c0-4.263,3.963-4.508,4.844-6.93s-2.037-11.507,6.55-15.908,13.046-.6,16.349-2.033,11.21-5.32,16.348-.774c4.763,4.214,2.017,6.165,5.935,5.725s12.946.66,14.267,6.6-1.762,9.468-6.606,8.587S48.4,40.517,47.381,35.673s-.273-10.349,3.866-10.129,6.381,2.367,3.258,3.743c-2.711,1.195-7.266-3.3-15.193-4.844s-15.633,3.3-18.936,7.487-5.064,12.5,2.863,13.956,6.6-3.991,11.449-3.909,12.693-.8,12.693-6.3" fill="none" stroke="#5e3136" stroke-linecap="round" stroke-miterlimit="10" stroke-width="2"/>
    <path id="Path_504" data-name="Path 504" d="M53.851,44.237a3.665,3.665,0,0,1-1.108-2.785A3.739,3.739,0,0,1,54.5,38.615" fill="none" stroke="#5e3136" stroke-linecap="round" stroke-miterlimit="10" stroke-width="2"/>
    <path id="Path_505" data-name="Path 505" d="M47.161,19.8S40.853,3.966,48.56,1.544,58.908,5.067,62.652,13.875,71.958,33.8,71.958,33.8" fill="none" stroke="#5e3136" stroke-linecap="round" stroke-miterlimit="10" stroke-width="2"/>
    <path id="Path_506" data-name="Path 506" d="M57.94,48.551S67.5,34.352,78.284,32.81s18.5.881,25.541,3.523,7.739,5.476,4.576,5.7-6.528-5.475-12.708-5.7-14.106-3.523-18.07,0S71.238,44.48,67.5,45.141s-2.2-5.064,1.982-5.174,6.385-.551,11.009-.661,12.33-2.091,17.835.661,5.791,7.076,2.091,6.5c-1.779-.28-4.01-2.39-5.614-4.184-3.537-3.954-15.421-.375-19.05,1.794s-6.271,10.565-6.271,10.565" fill="none" stroke="#5e3136" stroke-linecap="round" stroke-miterlimit="10" stroke-width="2"/>
    <path id="Path_507" data-name="Path 507" d="M75.748,44.072s8.86-2.407,10.334,3.83c.8,3.367,3.651,2.354,6.734,3.1a6.338,6.338,0,0,1,4.176,3.636" fill="none" stroke="#5e3136" stroke-linecap="round" stroke-miterlimit="10" stroke-width="2"/>
    <path id="Path_508" data-name="Path 508" d="M95.138,59.722s2.963-7.976,6.816-9.187,6.657-.941,7.9,2.887,3.333,4.269,4.323,6.471.441,5.615-2.091,6.715-11.231.849-14.863,3.633" fill="none" stroke="#5e3136" stroke-linecap="round" stroke-miterlimit="10" stroke-width="2"/>
    <path id="Path_509" data-name="Path 509" d="M112.688,69.856s-.762-7.888,6.55-9.523c8.863-1.982,10.733,8.587,10.733,8.587" fill="none" stroke="#5e3136" stroke-linecap="round" stroke-miterlimit="10" stroke-width="2"/>
    <path id="Path_510" data-name="Path 510" d="M114.638,57.911s4.158-2.963,5.975-1.481,1.047,2.7,1.047,2.7-1.541,2.368-2.2-.748,1.067-2.735-1.228-4.962-3.238-2.624-5.267-1.211a16.561,16.561,0,0,0-2.525,2.675" fill="none" stroke="#5e3136" stroke-linecap="round" stroke-miterlimit="10" stroke-width="2"/>
    <path id="Path_511" data-name="Path 511" d="M119.4,53.838s3.578-3.963-.385-9.027-11.148-2.851-13.255-1.328a8.1,8.1,0,0,0-3.81,7.052" fill="none" stroke="#5e3136" stroke-linecap="round" stroke-miterlimit="10" stroke-width="2"/>
    <path id="Path_512" data-name="Path 512" d="M121.318,56.645s1.77-9.853,10.471-11.945c7.529-1.81,9.908.551,11.229-2.422s2.532-4.844,4.954-3.963a5.255,5.255,0,0,1,3.523,5.168c0,2.208-.991,3.459.991,6.411s5,9.393,1.211,17.98" fill="none" stroke="#5e3136" stroke-linecap="round" stroke-miterlimit="10" stroke-width="2"/>
    <path id="Path_513" data-name="Path 513" d="M132.08,44.156a4.629,4.629,0,0,1,2.241-3.2c3.082-1.862,6.6-2.312,9.129.387" fill="none" stroke="#5e3136" stroke-linecap="round" stroke-miterlimit="10" stroke-width="2"/>
    <path id="Path_514" data-name="Path 514" d="M117.7,41.665s2.972-7.644,6.275-8.415,5.4-.22,6.936,1.431,3.193.586,5.394,2.6c1.854,1.7,1.445,4.153-.57,6.332" fill="none" stroke="#5e3136" stroke-linecap="round" stroke-miterlimit="10" stroke-width="2"/>
    <path id="Path_515" data-name="Path 515" d="M136.3,37.286a20.637,20.637,0,0,0,5.615-2.824c1.98-1.651,5.5.22,4.293.935s-3.082-.165-3.192,2.147-.909,2.709-.909,2.709" fill="none" stroke="#5e3136" stroke-linecap="round" stroke-miterlimit="10" stroke-width="2"/>
    <path id="Path_516" data-name="Path 516" d="M76.106,33.292s-1.255-11.607,1.9-14.243c3.468-2.9,7.761-1.211,9.413,2.752s2.026,10.772,2.026,10.772" fill="none" stroke="#5e3136" stroke-linecap="round" stroke-miterlimit="10" stroke-width="2"/>
    <path id="Path_517" data-name="Path 517" d="M90.009,32.328s-.021-15.691,3.468-17.793c4.018-2.422,7.706.22,8.147,3.743s1.376,6.6,1.6,9.908.014,7.926.014,7.926" fill="none" stroke="#5e3136" stroke-linecap="round" stroke-miterlimit="10" stroke-width="2"/>
    <path id="Path_518" data-name="Path 518" d="M103.306,30.263s.016-15.893,7.737-14.077c3.836.9,5.113,2.642,5.333,11.34a92.13,92.13,0,0,1-.71,14.764" fill="none" stroke="#5e3136" stroke-linecap="round" stroke-miterlimit="10" stroke-width="2"/>
    <path id="Path_519" data-name="Path 519" d="M116.206,36.722s5.08-13.73,8.922-14.153c3.468-.382,6.551,1.985,3.756,10.723" fill="none" stroke="#5e3136" stroke-linecap="round" stroke-miterlimit="10" stroke-width="2"/>
    <path id="Path_520" data-name="Path 520" d="M155.51,63.085a7.669,7.669,0,0,1,3.031-1.983c5.175-1.87,15.193-1.721,22.9-5.483s8.918-5.745,12.991-7.066,4.514-3.633-.66-2.2-7.487,3.18-10.679,4.893-18.055,8.866-20.808,11.565-3.3,6.111-6.165,5.56,8.587-12.517,13.872-14.515A150.4,150.4,0,0,0,186.284,46.9c6.055-3.083,9.468-3.868,8.918-5.237s-8.477,1.934-14.312,4.356-22.113,11.763-24.807,12.861" fill="none" stroke="#5e3136" stroke-linecap="round" stroke-miterlimit="10" stroke-width="2"/>
    <path id="Path_521" data-name="Path 521" d="M160.192,66.608s7.156-3.746,12.991-3.8,7.376,1.267,13.981-.935,7.707-3.281,8.918-5-.22-1.695-4.734,0-7.185,2.8-13.006,3.016-15.067,0-18.15,2.917-2.526,1.734-5.945,3.8" fill="none" stroke="#5e3136" stroke-linecap="round" stroke-miterlimit="10" stroke-width="2"/>
    <path id="Path_522" data-name="Path 522" d="M155.51,54.9s8.426-4.344,14.261-7,12.22-5.843,16.183-7.936,6.606-5.725,2.862-4.294-9.536,5.162-15.282,7.81-14.718,6.537-19.231,8.911" fill="none" stroke="#5e3136" stroke-linecap="round" stroke-miterlimit="10" stroke-width="2"/>
    <path id="Path_523" data-name="Path 523" d="M151.711,42.7a10.3,10.3,0,0,1,3.608-3.484c4.543-2.33,10.708-4.117,9.167-6.086s-6,1.664-9.167,3.206a37.843,37.843,0,0,0-5.076,2.972" fill="none" stroke="#5e3136" stroke-linecap="round" stroke-miterlimit="10" stroke-width="2"/>
    <path id="Path_524" data-name="Path 524" d="M151.7,44.686a28.956,28.956,0,0,0,6.069-1.968c5.394-2.532,10.9-5.274,12.44-7.371s-.44-2.931-2.752-1.523-7.046,3.436-9.468,5.835c-1.494,1.479-3.2,6.589-4.878,9.869" fill="none" stroke="#5e3136" stroke-linecap="round" stroke-miterlimit="10" stroke-width="2"/>
    <path id="Path_525" data-name="Path 525" d="M154.688,48.883s1.872,0,5.945-1.981,5.064-2.987,9.138-5.237,6.165-2.69,10.238-4.231,4.734-1.982,4.734-3.192-4.7.44-9.615,2.091-7.009,3-10.862,5.021-8.037,4.447-9.578,5.108c-.629.27-1.9.869-3.11,1.289" fill="none" stroke="#5e3136" stroke-linecap="round" stroke-miterlimit="10" stroke-width="2"/>
    <path id="Path_526" data-name="Path 526" d="M177.135,221.225a20.712,20.712,0,0,1-5.155-1.4" fill="none" stroke="#5e3136" stroke-linecap="round" stroke-miterlimit="10" stroke-width="2"/>
    <path id="Path_527" data-name="Path 527" d="M195.091,212.341c-1.528,5.208-6.329,6.7-7.938,7.4" fill="none" stroke="#5e3136" stroke-linecap="round" stroke-miterlimit="10" stroke-width="2"/>
    <path id="Path_528" data-name="Path 528" d="M140.431,218.149c4.128,2.147,11.89,1.651,16.514-2.312s10.569-11.56,6.935-18.66-4.491-8.918-11.163-6.111-9.965,6.345-13.607,10.569-8.422,11.89-2.642,11.4,16.306-9.258,20.807-14.532,5.284-15.977,13.541-13.376c5.438,1.713,7.6,1.981,12.716,1.156s8.2-4.459,12.715,0c1.165,1.15,1.629,3.082,1.391,6.059" fill="none" stroke="#5e3136" stroke-linecap="round" stroke-miterlimit="10" stroke-width="2"/>
    <path id="Path_529" data-name="Path 529" d="M179.692,186.708s1.362-4.394-.619-6.706" fill="none" stroke="#5e3136" stroke-linecap="round" stroke-miterlimit="10" stroke-width="2"/>
    <ellipse id="Ellipse_94" data-name="Ellipse 94" cx="5.202" cy="4.211" rx="5.202" ry="4.211" transform="translate(213.586 199.324)" fill="none" stroke="#5e3136" stroke-linecap="round" stroke-miterlimit="10" stroke-width="2"/>
    <path id="Path_530" data-name="Path 530" d="M208.994,213.376a4.228,4.228,0,0,1,3.441-3.286c2.311-.261,4.442,1.806,4.758,4.615s-1.3,5.3-3.611,5.559a4.227,4.227,0,0,1-4.082-2.43" fill="none" stroke="#5e3136" stroke-linecap="round" stroke-miterlimit="10" stroke-width="2"/>
    <path id="Path_531" data-name="Path 531" d="M201.76,219.177c-1.093,2.608-3.717,3.993-5.862,3.094s-3-3.741-1.906-6.349,3.718-3.993,5.863-3.094a3.512,3.512,0,0,1,.692.387" fill="none" stroke="#5e3136" stroke-linecap="round" stroke-miterlimit="10" stroke-width="2"/>
    <path id="Path_532" data-name="Path 532" d="M198.177,201.874c2.82.2,4.971,2.246,4.8,4.566s-2.587,4.037-5.407,3.834-4.971-2.246-4.8-4.566S195.357,201.672,198.177,201.874Z" fill="none" stroke="#5e3136" stroke-linecap="round" stroke-miterlimit="10" stroke-width="2"/>
    <path id="Path_533" data-name="Path 533" d="M180.921,208.694a4.211,4.211,0,1,1-1.541,5.752A4.211,4.211,0,0,1,180.921,208.694Z" fill="none" stroke="#5e3136" stroke-linecap="round" stroke-miterlimit="10" stroke-width="2"/>
    <path id="Path_534" data-name="Path 534" d="M173.47,199.3c2.014-1.163,4.8-.115,6.214,2.341s.935,5.389-1.079,6.552-4.8.115-6.215-2.341S171.456,200.459,173.47,199.3Z" fill="none" stroke="#5e3136" stroke-linecap="round" stroke-miterlimit="10" stroke-width="2"/>
    <path id="Path_535" data-name="Path 535" d="M164.667,221.324c-1.71-1.577-1.537-4.545.385-6.629s4.867-2.5,6.577-.92,1.537,4.545-.386,6.63S166.377,222.9,164.667,221.324Z" fill="none" stroke="#5e3136" stroke-linecap="round" stroke-miterlimit="10" stroke-width="2"/>
    <path id="Path_536" data-name="Path 536" d="M164.376,214.64c-2.972-1.445-2.129-5.223-.206-7.307s4.665-2.354,6.166-1.05c1.756,1.525,1.537,4.545-.386,6.629" fill="none" stroke="#5e3136" stroke-linecap="round" stroke-miterlimit="10" stroke-width="2"/>
    <ellipse id="Ellipse_95" data-name="Ellipse 95" cx="4.211" cy="5.134" rx="4.211" ry="5.134" transform="translate(198.487 214.524) rotate(-45)" fill="none" stroke="#5e3136" stroke-linecap="round" stroke-miterlimit="10" stroke-width="2"/>
    <path id="Path_537" data-name="Path 537" d="M222.5,206.786c2.683.919,4.246,3.448,3.492,5.648s-3.54,3.238-6.223,2.319-4.246-3.448-3.491-5.648a3.555,3.555,0,0,1,.852-1.361" fill="none" stroke="#5e3136" stroke-linecap="round" stroke-miterlimit="10" stroke-width="2"/>
    <path id="Path_538" data-name="Path 538" d="M204.9,198.016c-.754,2.2-3.54,3.238-6.222,2.319s-4.246-3.448-3.492-5.648,3.54-3.239,6.222-2.319S205.659,195.816,204.9,198.016Z" fill="none" stroke="#5e3136" stroke-linecap="round" stroke-miterlimit="10" stroke-width="2"/>
    <path id="Path_539" data-name="Path 539" d="M185.753,215.549a5.417,5.417,0,0,1,.407,5.781c-1.328,2.653-4.287,3.862-6.609,2.7s-3.128-4.255-1.8-6.909a5.939,5.939,0,0,1,1.786-2.136" fill="none" stroke="#5e3136" stroke-linecap="round" stroke-miterlimit="10" stroke-width="2"/>
    <path id="Path_540" data-name="Path 540" d="M222.05,198.952c2.147-.165,13.665,1.857,12.509,4.17s-13.046-5.781-11.807-7.761,6.027-9.083,7.348-6.606-8.091,8.092-9.908,7.6-7.266-7.266-4.624-7.761,5.566,9.425,5.566,9.425" fill="none" stroke="#5e3136" stroke-linecap="round" stroke-miterlimit="10" stroke-width="2"/>
    <path id="Path_541" data-name="Path 541" d="M187.2,212.872a26.784,26.784,0,0,0,7.89-.532c9.086-1.859,11.89-2.955,13.376-6.265s-.867-6.669,0-9.724,2.477-9.909,9.578-10.909c7.358-1.035,13.541-1.145,16.513,6.451s3.468,12.385,0,15.853-5.906,4.589-8.567,4.688" fill="none" stroke="#5e3136" stroke-linecap="round" stroke-miterlimit="10" stroke-width="2"/>
    <path id="Path_542" data-name="Path 542" d="M171.477,212.341a8.29,8.29,0,0,1,6.44-1.571c.29.044.581.1.874.166" fill="none" stroke="#5e3136" stroke-linecap="round" stroke-miterlimit="10" stroke-width="2"/>
    <path id="Path_543" data-name="Path 543" d="M202.982,206.44l5.485-.366,3.968,4.016" fill="none" stroke="#5e3136" stroke-linecap="round" stroke-miterlimit="10" stroke-width="2"/>
    <line id="Line_88" data-name="Line 88" x1="5.733" y2="3.234" transform="translate(202.982 201.994)" fill="none" stroke="#5e3136" stroke-linecap="round" stroke-miterlimit="10" stroke-width="2"/>
    <line id="Line_89" data-name="Line 89" x2="2.934" y2="0.606" transform="translate(204.905 198.016)" fill="none" stroke="#5e3136" stroke-linecap="round" stroke-miterlimit="10" stroke-width="2"/>
    <line id="Line_90" data-name="Line 90" x2="7.152" y2="5.034" transform="translate(209.126 204.071)" fill="none" stroke="#5e3136" stroke-linecap="round" stroke-miterlimit="10" stroke-width="2"/>
    <line id="Line_91" data-name="Line 91" x1="4.46" y1="0.496" transform="translate(209.126 202.267)" fill="none" stroke="#5e3136" stroke-linecap="round" stroke-miterlimit="10" stroke-width="2"/>
    <path id="Path_544" data-name="Path 544" d="M197.634,181.506a13.341,13.341,0,0,1,13.146-1.348c5.5,2.186,7.266,5.285,7.266,5.285" fill="none" stroke="#5e3136" stroke-linecap="round" stroke-miterlimit="10" stroke-width="2"/>
    <path id="Path_545" data-name="Path 545" d="M188.8,184.705c-2.625.784-6.649-2.012-10.664-1.95-4.042.063-3,1.345-10.664,2" fill="none" stroke="#5e3136" stroke-linecap="round" stroke-miterlimit="10" stroke-width="2"/>
  </g>
</svg>
