<svg xmlns="http://www.w3.org/2000/svg" xmlns:xlink="http://www.w3.org/1999/xlink" width="101" height="101" viewBox="0 0 101 101"><defs><clipPath id="a"><rect width="101" height="101" fill="none"/></clipPath></defs><g clip-path="url(#a)"><circle cx="50" cy="50" r="50" transform="translate(0.5 0.5)" fill="none" stroke="#5e3136" stroke-miterlimit="10" stroke-width="1"/><path d="M52.107,71.381a4.348,4.348,0,0,0-2.574-2.913,7.475,7.475,0,0,0-6.706.474c-2.778,1.491-8.536,0-9.755-3.929s-2.1-9.28.61-14.5,6.977-4.674,10.77-.542A16.178,16.178,0,0,1,48.246,62.3c-.339,2.574-4.539,8.535-11.11,5.351s-.172-12.4-5.234-15.445A9.918,9.918,0,0,0,19.117,53.9C15.45,57.7,13.732,66.3,16.408,69.213c1.884,2.051,6.571,1.7,10.229.074s4.538-3.935,4.538-3.935" fill="none" stroke="#5e3136" stroke-linecap="round" stroke-miterlimit="10" stroke-width="1"/><path d="M63.5,42.468a3.5,3.5,0,0,0-3.232,3.2A3.139,3.139,0,0,0,63.5,48.9,3.015,3.015,0,0,0,66.82,45.82,3.512,3.512,0,0,0,63.5,42.468Z" fill="none" stroke="#5e3136" stroke-linecap="round" stroke-miterlimit="10" stroke-width="1"/><path d="M52.146,52.321c-1.418-.173-1.643.932-1.714,1.5s.714,1.358,1.714,1.358,1.286-.718,1.286-1.431S53.289,52.46,52.146,52.321Z" fill="none" stroke="#5e3136" stroke-linecap="round" stroke-miterlimit="10" stroke-width="1"/><path d="M59.8,54.181a2.565,2.565,0,0,0-2.372,1.928A2.308,2.308,0,0,0,59.8,58.324c1.985.071,2.128-1.074,2.2-2.073A1.928,1.928,0,0,0,59.8,54.181Z" fill="none" stroke="#5e3136" stroke-linecap="round" stroke-miterlimit="10" stroke-width="1"/><path d="M43.871,48.892a4.168,4.168,0,0,0,.6-2.308,3.351,3.351,0,0,0-3-3.218c-2.4-.413-3.786,2.079-3.929,3.218" fill="none" stroke="#5e3136" stroke-linecap="round" stroke-miterlimit="10" stroke-width="1"/><path d="M75.167,50.4c-1.841-.368-3.158,1.382-3.257,2.763s1.185,2.467,3.257,2.566,2.566-.992,2.665-2.667S76.647,50.7,75.167,50.4Z" fill="none" stroke="#5e3136" stroke-linecap="round" stroke-miterlimit="10" stroke-width="1"/><path d="M54.575,40.968c-2.144,0-2.433,1.928-2.645,2.714s.717,2.107,2.645,1.982,2.071-1.279,2.071-2.345S56.5,40.968,54.575,40.968Z" fill="none" stroke="#5e3136" stroke-linecap="round" stroke-miterlimit="10" stroke-width="1"/><path d="M33.831,49.972c-.2-5.93-.941-13.226,2.1-14.5,3.572-1.5,6.213-3.642,10.643-4.857s4.428-1.428,10.141,0S68.788,34.04,74.93,35.9s9,2.857,7.215,3.285-12-.227-16.929-.227-16.218-.44-21.5-.773c-3.65-.23-6.175-.608-6.175-.608" fill="none" stroke="#5e3136" stroke-linecap="round" stroke-miterlimit="10" stroke-width="1"/><path d="M82.015,40.968s-1.066,20.264,0,24.035,5.462,1.476,3.279-.656-4.15-1.809-9.149-2.023-13.428-.357-19.5-.643c-2.149-.1-4.826-.265-7.5-.45" fill="none" stroke="#5e3136" stroke-linecap="round" stroke-miterlimit="10" stroke-width="1"/></g></svg>