<?xml version="1.0" encoding="UTF-8"?> <svg xmlns="http://www.w3.org/2000/svg" version="1.1" viewBox="0 0 232.6 197.6"><defs><clipPath id="clip-path"><rect width="224.3" height="189" fill="#d4e0e3" data-name="Rectangle 429"></rect></clipPath><clipPath id="clip-path-2"><rect width="96.41" height="79.52" fill="#a56559" data-name="Rectangle 430"></rect></clipPath></defs><g transform="translate(-21.55)" data-name="Group 759"><g transform="translate(21.55)" data-name="Group 604"><g clip-path="url(#clip-path)" data-name="Group 603"><path d="m206.9 48.52c-12.16-19.26-36.11-41.59-78.35-47.56s-86.37 16.82-105.6 48.82-20.48 52.66-22.41 73.18 1.1 38.85 11.43 52.32 29.05 16.94 44.67 10.85 31.08-11.94 49.37-13.46 34.94-2.489 50.88-2.788 41-9.067 53.78-26.88 24.35-49.89-3.8-94.48" fill="#d4e0e3" data-name="Path 658"></path></g></g><g transform="rotate(248 167.3 45.77)" data-name="Group 606"><g clip-path="url(#clip-path-2)" data-name="Group 605"><path d="m0.709 56.69c-6.673 25.94 35.06 27.36 70.12 16.25s29.93-37.62 9.406-58.15-61.06-29.88-79.52 41.9" fill="#a56559" data-name="Path 659"></path></g></g><path id="Icon_awesome-instagram" transform="translate(84.33 68.61)" d="m27.98 15.87a14.35 14.35 0 1 0 14.35 14.35 14.32 14.32 0 0 0-14.35-14.35zm0 23.67a9.327 9.327 0 1 1 9.327-9.327 9.344 9.344 0 0 1-9.327 9.327zm18.28-24.26a3.346 3.346 0 1 1-3.346-3.346 3.338 3.338 0 0 1 3.346 3.346zm9.5 3.4c-0.212-4.482-1.236-8.453-4.52-11.72s-7.243-4.299-11.72-4.524c-4.62-0.262-18.47-0.262-23.09 0-4.47 0.212-8.44 1.236-11.72 4.507s-4.295 7.243-4.52 11.72c-0.262 4.62-0.262 18.47 0 23.09 0.212 4.482 1.236 8.453 4.52 11.72s7.242 4.3 11.72 4.52c4.62 0.262 18.47 0.262 23.09 0 4.482-0.212 8.453-1.236 11.72-4.52s4.3-7.242 4.52-11.72c0.262-4.62 0.262-18.45 0-23.07zm-5.963 28.03a9.443 9.443 0 0 1-5.319 5.319c-3.683 1.461-12.42 1.124-16.49 1.124s-12.82 0.325-16.49-1.124a9.443 9.443 0 0 1-5.319-5.319c-1.465-3.683-1.128-12.42-1.128-16.49s-0.324-12.82 1.124-16.49a9.443 9.443 0 0 1 5.319-5.322c3.683-1.461 12.42-1.124 16.49-1.124s12.82-0.322 16.49 1.124a9.443 9.443 0 0 1 5.323 5.322c1.457 3.678 1.12 12.42 1.12 16.49s0.337 12.82-1.12 16.49z" fill="#a46559" stroke="#a56559" data-name="Icon awesome-instagram"></path></g></svg> 