<?xml version="1.0" encoding="UTF-8"?> <svg xmlns="http://www.w3.org/2000/svg" xmlns:xlink="http://www.w3.org/1999/xlink" id="icon1" width="165.721" height="262.684" viewBox="0 0 165.721 262.684"><defs><clipPath id="clip-path"><rect id="Rectangle_401" data-name="Rectangle 401" width="165.721" height="262.684" fill="none" stroke="#5e3136" stroke-width="1"></rect></clipPath></defs><g id="Group_536" data-name="Group 536" clip-path="url(#clip-path)"><path id="Path_478" data-name="Path 478" d="M143.954,258.959s-1.45-9.857-2.319-17.685-.29-11.6-6.378-11.017-12.757,3.073-35.37-.058-33.05-3.71-35.37-4.87-2.609-2.9-3.189-10.147a200.134,200.134,0,0,1,0-22.9c.29-4.639-2.609-3.189-8.117-2.9s-8.3-2.409-13.916-.443-6.668,9.72-3.769,11.459S59.3,184.161,64.807,184.451s34.21,3.189,40.009,4.929,23.483-1.45,25.8-3.189,7.828.869,10.437,5.508" fill="none" stroke="#5e3136" stroke-miterlimit="10" stroke-width="2"></path><path id="Path_479" data-name="Path 479" d="M78.411,153.283c-.2,5.606-.931,12.651-1.441,17.831-.855,8.7-4.335-11.306-4.915-17.394s-1.74-17.1,2.029-24.063,2.031-14.786-.579-15.366-7.828,1.74-6.379-4.059,1.049-13.218-3.3-16.407" fill="none" stroke="#5e3136" stroke-miterlimit="10" stroke-width="2"></path><path id="Path_480" data-name="Path 480" d="M101.24,94.7c-2.865-2.115-2.513-7.08-4.252-8.82s-6.378,7.538-6.668,9.857,1.043,9.857-1.363,12.467-10.234,4.348-11.1,14.495-1.632,14.233-.182,20.611" fill="none" stroke="#5e3136" stroke-miterlimit="10" stroke-width="2"></path><path id="Path_481" data-name="Path 481" d="M141.925,262.51l-1.45-8.19s-1.449-24.352,3.479-26.672,14.206-8.7,15.656-18.264,1.159-15.946,3.479-27.832,2.029-16.525,0-19.424-4.639-20-6.088-28.7-2.32-20.248-8.408-27.954-14.5-9.735-24.933-10.6c-7.761-.647-15.2.79-19.461.735" fill="none" stroke="#5e3136" stroke-miterlimit="10" stroke-width="2"></path><path id="Path_482" data-name="Path 482" d="M119.311,184.447s10.57-25.166,12.176-24.639c2.182.716,2.61,3.769,2.03,4.638a18.235,18.235,0,0,0,.235,6.282c.731,3.479-.042,6.185-1.588,10.823s-9.471,5.026-11.79,5.605-5.605,2.126-4.059,4.832" fill="none" stroke="#5e3136" stroke-miterlimit="10" stroke-width="2"></path><path id="Path_483" data-name="Path 483" d="M83.764,155.377q.5.057,1.048.082a7.492,7.492,0,0,0,8.124-7.875c-.11-2.719-1.6-6.089-3.979-6.621-4.226-.944-9.756.835-7.914,5.525.9,2.3,5.79,2.947,6.523-.58a65.673,65.673,0,0,1,3.624-11.613c3-7.5,4.639-13.336,7.538-19.714S109.5,90.035,98.6,89.573" fill="none" stroke="#5e3136" stroke-miterlimit="10" stroke-width="2"></path><path id="Path_484" data-name="Path 484" d="M99.255,91.744c3,1.335,3.241,7.807.633,13.727S92.729,123.382,89.5,130.913c-3.032,7.067-1.742,8.016-7.153,9.32-3.793.915-6.158,4.264-5.894,8.613a6.53,6.53,0,0,0,4.348,5.823" fill="none" stroke="#5e3136" stroke-miterlimit="10" stroke-width="2"></path><path id="Path_485" data-name="Path 485" d="M63.858,114.939s2.4,1.837,4.718,8.568,7.1,17.964,5.509,33.4c-.544,5.269-4.059,9.857-13.336,7.248s-6.826-5-5.509-5.8c2.116-1.288,5.8,2.61,6.089,2.9s2.464,2.935-.58,2.9" fill="none" stroke="#5e3136" stroke-miterlimit="10" stroke-width="2"></path><path id="Path_486" data-name="Path 486" d="M55.616,146.242s9.409,10.993,12.453,12.768,7.553,2.819,11.2-1.884c2.428-3.133,2.284-4.168,3.889-6.5,1.33-1.928,4.7-.55,2.634,2.291-2.211,3.044-4.95,5.668-5.543,2.851" fill="none" stroke="#5e3136" stroke-miterlimit="10" stroke-width="2"></path><path id="Path_487" data-name="Path 487" d="M106.845,233.156a80.711,80.711,0,0,1-1.91,11.6c-1.33,4.928-2.439,5.8-6.5,6.088s-9.277-1.16-19.714-2.03-22.9-2.609-22.9-2.609c-9.567-1.449-19.134-4.638-27.542-7.828s-16.525-2.319-18.264-4.638-4.349-9.567-7.248-24.353-1.74-34.79,0-49.285-.58-31.6,2.9-38.559S15.812,109.363,24.8,105.884s1.232,19.134-7.827,15.365c-7-2.913-2.9-7.538-.58-6.088s8.117,17.105,8.987,30.151-.87,27.252,2.609,30.151,10.147,6.378,8.118,10.727-7.248,12.176-4.059,14.5,16.815,8.987,21.744,10.437,6.668,1.449,6.668,1.449" fill="none" stroke="#5e3136" stroke-miterlimit="10" stroke-width="2"></path><path id="Path_488" data-name="Path 488" d="M94.217,83.779s-.826-9.791-1.481-13.168c-1.257-6.475,3.222-9.024,3.865-5.605.532,2.826-1.353,6.764-4.639,10.823s-4.084,8.336-9.9,10.993c-4.977,2.271-9.5,2.319-13.481-.169-3.3-2.06-10.075-6.379-10.075-6.379s-4.807-3.672-6.547-8.117-4.832-10.63-4.638-14.5S47.7,39.686,60.458,43.552s6.379,16.042,5.8,17.008-1.547,4.5,1.353,5.053,5.966,2.154,8.1,0,5.811-2.927,3.878-5.246-9.712-2.682-10.22.87c-.41,2.87,2.281,4.6,4.856,2.754,2.63-1.885-1.846-13.452-1.667-16.018" fill="none" stroke="#5e3136" stroke-miterlimit="10" stroke-width="2"></path><path id="Path_489" data-name="Path 489" d="M67.489,75.878A12.956,12.956,0,0,0,74.012,77.5c4.509-.41,6.6-2.022,8.335-5.307s3.213-5.8-1.669-4c-4.667,1.723-6.376,2.835-9.559,2.763-4.654-.106-11.367.125-3.558,2.166a15.671,15.671,0,0,0,13.117-2.311,93.628,93.628,0,0,0,9.647-8.126c4.054-4.059,5.313-5.01,7.243-5.412,2.9-.6,4.445-2.9,5.025-7.344s.193-13.723-1.74-14.109-4.252,3.285-4.252,5.6,1.74,3.285,1.933.773-4.821-5.6-8.209-9.471-5.514-8.5-9.959-11.017-9.286-1.739-8.412-5.025S71.475-1.288,81.719,4.7s15.269,10.63,19.521,20.874,6.378,29.185,9.664,35.949,7.731,16.963,4.832,24.137c-1.747,4.323-2.813,7.093-2.321,9.289" fill="none" stroke="#5e3136" stroke-miterlimit="10" stroke-width="2"></path><path id="Path_490" data-name="Path 490" d="M68.77,18.04a4.627,4.627,0,0,0-6.571,0,20.21,20.21,0,0,0-6.958,14.882c-.194,6.572-2.9,30.98-10.437,32.692s-13.505,3.325-13.336,0c.145-2.855,11.044-1.861,13.916,3.837,1.522,3.02,5.025,17.975-3.479,24.16s-13.047,11.861-14.689,8.654c-1.859-3.628,11.112-4.606,11.4-1.7.242,2.416-5.992,10.244-6.571,18.361s3.865,15.076,8.89,17.2,6.378,2.126,10.437,1.739,2.369-4.252-3.551-4.059-6.5,8.7-4.18,13.143,8.118,6.572,11.6,6.958.386-.58,0-3.865,2.9-13.53,5.218-17.4,3.365-13.336,3.615-22.807S65.1,90.86,60.459,85.664s-18.208,8.527-26.5-1.717S26.9,59.594,30.73,47.031,37.266,20.939,45.19,13.4,59.879-3.356,70.9,3.283" fill="none" stroke="#5e3136" stroke-miterlimit="10" stroke-width="2"></path></g></svg> 