<svg xmlns="http://www.w3.org/2000/svg" xmlns:xlink="http://www.w3.org/1999/xlink" width="224.604" height="70.791" viewBox="0 0 224.604 70.791"><defs><clipPath id="a"><rect width="224.604" height="70.791" fill="#583337"/></clipPath></defs><g clip-path="url(#a)"><path d="M207.553,74.682l-.9.049-.15.3h12.878l-.15-.3-.448-.049c-2.4-.3-2.6-.449-2.6-.748V60.506c0-2.4-.449-4.792-1.6-5.99a5.324,5.324,0,0,0-4.043-1.747c-3.195,0-6.339,2.546-8.685,4.593V49.6h-7.188V73.883c0,.6-.549.7-2.146.8l-.549.049-.15.3h12.729l-.15-.3-.7-.049c-1.747-.15-1.946-.3-1.946-.7V58.011a6.666,6.666,0,0,1,3.594-1.048c2.246,0,3.793,1,3.793,4.143V73.883c0,.4.15.7-1.6.8" transform="translate(-19.487 -5.038)" fill="#583337"/><path d="M218.423,33.441c-1.7-.449-2-.8-2-3.793V9.127h0V1.334A22.421,22.421,0,0,1,213.6,4.2a6.927,6.927,0,0,1-4.361,1.808,5.26,5.26,0,0,1-2.711-.755l-.324.157a8.289,8.289,0,0,0,1.039.506c1.782.7,2.1.847,2.1,3.769v4.141c0,.1-.1,0-.1,0a9.736,9.736,0,0,0-4.392-.748c-5.54,0-12.479,3.643-12.479,11.879,0,6.14,4.143,10.882,8.985,10.882,3.094,0,6.039-2.346,7.886-4.842l.1.149-.049,4.742,10.281-1.946.05-.2ZM209.339,30.4a5.364,5.364,0,0,1-3.843,1.747c-3.294,0-5.39-3.694-5.39-8.885,0-5.341,1.447-9.683,4.442-9.683,1.3,0,3.445,1.947,4.792,4.443Z" transform="translate(-19.542 -0.135)" fill="#583337"/><path d="M52.694,74.08l1.9-.2c1.747-.25,2.334-1.521,2.3-3.367V44.382c0-.349-.3-.349-2.795-.649l-1.348-.149-.15-.4H67.019c9.883,0,13.976,2,13.976,7.187,0,3.445-3.294,5.541-8.685,6.439v.1c6.289.549,10.232,3.544,10.232,8.236,0,5.64-4.242,9.234-14.075,9.234H52.544ZM65.222,57.1c4.192.2,7.836-1.691,7.836-6.633,0-4.641-3.444-6.638-7.486-6.638l-.549.1V57.1Zm2.445,16.627c3.535-.429,6.638-3.544,6.638-8.236,0-4.941-3.893-7.736-8.386-7.736h-.9V73.032a3.291,3.291,0,0,0,2.645.7" transform="translate(-5.338 -4.387)" fill="#583337"/><path d="M106.2,25.611c0-6.338,5.041-11.43,12.578-11.43,7.587,0,12.179,5.141,12.179,11.33,0,6.489-4.941,11.63-12.578,11.63-7.687,0-12.179-5.24-12.179-11.53m17.12.25c0-6.488-1.148-9.134-2.4-10.382a2.974,2.974,0,0,0-2.246-.8c-3.294,0-4.941,4.143-4.941,10.681,0,6.489,1.2,9.235,2.4,10.532a2.946,2.946,0,0,0,2.3.8c3.195,0,4.892-4.342,4.892-10.831" transform="translate(-10.788 -1.44)" fill="#583337"/><path d="M162.7,25.611c0-6.338,5.041-11.43,12.579-11.43,7.586,0,12.178,5.141,12.178,11.33,0,6.489-4.941,11.63-12.578,11.63-7.687,0-12.179-5.24-12.179-11.53m17.12.25c0-6.488-1.148-9.134-2.4-10.382a2.974,2.974,0,0,0-2.246-.8c-3.294,0-4.941,4.143-4.941,10.681,0,6.489,1.2,9.235,2.4,10.532a2.949,2.949,0,0,0,2.3.8c3.195,0,4.892-4.342,4.892-10.831" transform="translate(-16.528 -1.44)" fill="#583337"/><path d="M236,32.2l-.1-.1c-2.445,2.844-4.642,4.841-7.337,4.841a5.063,5.063,0,0,1-5.142-4.692c0-3.793,3.246-6.089,12.678-8.635l.051-1.847c.148-3.543-1.7-6.239-5.042-6.239-1.9,0-2.446.449-2.446,1.048,0,.449,1.7,1.9,1.7,3.195a3.141,3.141,0,0,1-3.394,2.994c-1.7,0-3.195-.9-3.195-2.7,0-3.793,7.288-5.89,11.581-5.89,6.14,0,8.037,2.5,7.886,7.587l-.4,9.085c-.1,2,.848,2.895,1.946,2.895.8,0,1.548-.9,2.1-1.7l.349.15c-1.348,1.647-3.743,4.791-6.637,4.791-2.6,0-4.143-1.846-4.593-4.791m-.2-.6.35-7.437c-4.294,1.148-5.841,2.795-5.841,5.441,0,2,.949,3.444,2.845,3.444A3.651,3.651,0,0,0,235.8,31.6" transform="translate(-22.697 -1.44)" fill="#583337"/><path d="M153.364,10.446c.49,1.649,1.578,3.4,3.874,3.416a3.488,3.488,0,0,0,3.364-3.375,3.654,3.654,0,0,0-3.922-3.915c-2.992-.017-5.047,2.373-6.6,7.2a14.7,14.7,0,0,0-3.152-.36c-5.142,0-9.683,3.445-9.683,7.288,0,3.094,1.8,4.991,4.791,5.99-3.1.948-6.039,2.795-6.039,5.64,0,2.445,2.795,4.891,5.989,4.992l.1-.05v.05h-.1c-2.944,1.147-6.289,2.445-6.289,4.991,0,3.245,2.845,4.642,9.583,4.642,7.837,0,13.776-4.392,13.776-9.833,0-3.793-2.945-6.139-7.537-6.139-1.8,0-5.84.149-7.238.149-2.845,0-4.143-.549-4.143-1.647s1.1-2.146,2.845-2.546a20.409,20.409,0,0,0,3.793.349c5.541,0,9.794-3.045,9.783-6.938a5.579,5.579,0,0,0-1.139-3.444,7.614,7.614,0,0,0-2.454-2.1,10.35,10.35,0,0,0-2.372-.913c.818-2.322,1.658-3.38,2.767-3.447m-5.287,26.571c4.642.15,6.788.949,6.788,3.843,0,3-2.745,5.191-7.037,5.191-4.343,0-7.038-2-7.038-4.742,0-1.847.3-3.244,2.2-3.993a40.2,40.2,0,0,1,5.09-.3m-1.1-10.232c-1.947,0-2.895-1.9-2.895-6.289,0-4.593.8-6.489,2.795-6.489s3.045,2.246,3.045,6.439c0,4.542-.849,6.339-2.945,6.339" transform="translate(-13.785 -0.667)" fill="#583337"/><path d="M167.885,65.357c0-7.038,5.191-12.229,12.378-12.229,4.792,0,8.386,2.2,8.386,5.191a3.421,3.421,0,0,1-6.839.2c0-1.447,1.5-2.895,1.5-3.294,0-.749-1.149-1.4-2.6-1.4-3.094,0-5.091,3.244-5.091,9.034,0,6.089,2.446,9.384,7.088,9.384a6.047,6.047,0,0,0,5.94-3.894l.3.15c-1.946,4.941-5.489,7.687-10.382,7.687a10.454,10.454,0,0,1-10.68-10.831" transform="translate(-17.055 -5.397)" fill="#583337"/><path d="M236.078,71.148l-.1-.1c-2.445,2.844-4.642,4.842-7.337,4.842A5.063,5.063,0,0,1,223.5,71.2c0-3.793,3.245-6.089,12.678-8.635l.05-1.847c.149-3.543-1.7-6.239-5.041-6.239-1.9,0-2.446.449-2.446,1.048,0,.449,1.7,1.9,1.7,3.195a3.141,3.141,0,0,1-3.394,2.994c-1.7,0-3.195-.9-3.195-2.7,0-3.793,7.288-5.889,11.581-5.889,6.139,0,8.036,2.5,7.886,7.586l-.4,9.085c-.1,2,.849,2.895,1.947,2.895.8,0,1.548-.9,2.1-1.7l.349.15c-1.348,1.647-3.743,4.792-6.637,4.792-2.6,0-4.143-1.847-4.593-4.792m-.2-.6.349-7.437c-4.293,1.148-5.841,2.795-5.841,5.441,0,2,.949,3.444,2.845,3.444a3.651,3.651,0,0,0,2.646-1.447" transform="translate(-22.704 -5.397)" fill="#583337"/><path d="M87.546,75.09l.6-.049c1.547-.1,2.1-.2,2.1-.8V60.465c0-3.1-.349-3.494-2.047-3.943l-1.148-.25.05-.2,10.382-2.845-.15,7.886h.1c1.548-5.34,3.644-7.986,6.788-7.986a3.654,3.654,0,0,1,3.943,3.894,3.487,3.487,0,0,1-3.344,3.393c-2.3,0-3.394-1.747-3.894-3.393-1.5.1-2.495,2-3.594,6.389V74.242c0,.4.449.649,2.746.8l.649.049.15.3H87.4Z" transform="translate(-8.843 -5.397)" fill="#583337"/><path d="M111.937,75.324l12.029-20.864-1.8.1c-4.193.15-6.588,2.1-7.886,5.041l-1.4,3h-.249V53.961H132.2v.15L119.673,74.925h1.847a12.089,12.089,0,0,0,10.132-6.738l.7-1.547h.3L131.2,75.474H111.937Z" transform="translate(-11.371 -5.481)" fill="#583337"/><path d="M153.733,71.31h-.15c-2.5,2.3-5.59,4.642-8.834,4.642-1.7,0-2.5-.649-3.694-1.847s-1.7-3.494-1.6-5.99l.192-9.4a2.769,2.769,0,0,0-1.033-2.164,21.52,21.52,0,0,1-2.919-2.515v-.3c.246.24,2.855,3.323,10.978,3.085l-.13,10.741c-.1,3.144,1.547,4.193,3.943,4.193a5.889,5.889,0,0,0,3.144-1.048V59.374c0-.5.068-2.458-1.95-2.339-1.106.065-1.488.067-1.488.067l-.139-.277A14.576,14.576,0,0,0,160.6,51.778l.07,16.986c0,2.895.3,3.344,1.947,3.793l1.248.25-.05.2-10.281,3.045Z" transform="translate(-13.785 -5.26)" fill="#583337"/><path d="M88.526,20.386c9.383,0,14.924-3.045,14.924-8.536,0-5.44-4.941-7.586-14.675-7.586H76.949v.3c1.284.072,1.493.512,1.495.9v28.65c0,.3-.549.6-2.3.848l-1.9.2-.15.3H91.27l-.149-.3-1.847-.15c-2.5-.25-2.7-.4-2.7-.748V20.187a7.559,7.559,0,0,0,1.947.2M86.579,4.913l1.747-.15c4.193.2,6.489,2.646,6.489,7.737,0,4.392-2.845,7.387-6.589,7.387-.649,0-1.2-.25-1.647-.25Z" transform="translate(-7.528 -0.433)" fill="#583337"/><path d="M55.783,56.438l-.292.015h-1.2c-3.791,0-7.974-.979-10.715-3.494a14.425,14.425,0,0,1-4.169-6.481c-.506-1.847-.468-3.042.265-3.676,1.391,1.013,3.321,1.745,5.152.361a3.488,3.488,0,0,0,.623-4.724,3.655,3.655,0,0,0-5.494-.73c-2.321,1.753-2.636,4.787-1.093,9.34l0,0a14.587,14.587,0,0,0,4.224,6.373c3.013,2.916,7.721,3.682,11.21,3.682H54.5l.131,0,.2,0c.314,0,.638-.014.968-.032" transform="translate(-3.851 -3.737)" fill="#583337"/><path d="M191.65,42.512a6.937,6.937,0,0,1,2.08,2.394c1.039,2,.9,3.443.927,5.719h7.187V45.481a7.117,7.117,0,0,1-.884.367c-3.821,1.1-6.939-2.024-8.987-3.494l-.323.157" transform="translate(-19.469 -4.302)" fill="#583337"/><path d="M64.365,2.074a18.82,18.82,0,0,0-9.1-2.065,19.645,19.645,0,0,0-14.743,7.1c-.336.416-.645.851-.942,1.294a28.7,28.7,0,0,0-7.041-.321,22.245,22.245,0,0,0-12.217,5.209,14.741,14.741,0,0,0-3.963,6.2c-1.753,4.657-.778,9.511-.3,11.978a13.525,13.525,0,0,0-8.736,2.394A16.188,16.188,0,0,0,.013,47.183a19.249,19.249,0,0,0,5.825,14.8C10.2,66.18,16.133,68.86,23.972,69.565c1.749.157,6.152.358,8.293.372h.243c2.571,0,5.073.009,7.474.02-.053-.109-.109-.223-.158-.323-2.428-.005-4.957-.009-7.558-.009-.427,0-1.016,0-1.525-.026a31.8,31.8,0,0,1-7.681-1.506c-5.18-1.8-11.473-6.688-14.195-11.058-2.232-3.583-3.441-7.451-2.984-13.222.226-2.839,1.613-7.106,3.641-9.2,2.917-3,5.9-2.977,6.593-2.87l.109.022a7.43,7.43,0,0,1,.975.266,9.373,9.373,0,0,1,4.98,4.646l.068.141.29-.112-.041-.147c-2.391-8.631-3.16-14.4-.379-20.125A14.01,14.01,0,0,1,31.438,9.07a20.849,20.849,0,0,1,7.842-.327l.067.006c-2.911,4.569-3.8,10.493-2.572,17.278l.094-.017.286.08C34.862,14.693,43.74,6.21,50.63,5.869c4.428-.218,8.03.155,13.988,5.694l.3-.083a6.934,6.934,0,0,1-1.667-2.653,7.914,7.914,0,0,1,.931-6.469" transform="translate(0 0)" fill="#583337"/></g></svg>