<svg xmlns="http://www.w3.org/2000/svg" width="389.803" height="1316.292" viewBox="0 0 389.803 1316.292"><g transform="translate(14.804 -3068.708)"><rect width="344" height="1301" transform="translate(16 3084)" fill="#ffebe6"/><path d="M114.8.813c42.738-6.97,51.974,32.66,47.615,51.712s-13.874,38,4.671,68.584,24.231,50.7,0,81.013-99.752,36.973-121.4,22.188S-8.447,196,2.026,127.007,72.063,7.784,114.8.813Z" transform="translate(133.29 3343.293) rotate(-120)" fill="#fff2ef"/><path d="M124.423.881c46.321-7.555,56.332,35.4,51.607,56.047s-15.037,41.187,5.063,74.335,26.262,54.951,0,87.806S72.978,259.141,49.511,243.116-9.155,212.428,2.2,137.655,78.1,8.437,124.423.881Z" transform="translate(-14.804 4008.985) rotate(-30)" fill="#fff2ef"/><path d="M124.423.881c46.321-7.555,56.332,35.4,51.607,56.047s-15.037,41.187,5.063,74.335,26.262,54.951,0,87.806S72.978,259.141,49.511,243.116-9.155,212.428,2.2,137.655,78.1,8.437,124.423.881Z" transform="matrix(-0.866, -0.5, 0.5, -0.866, 249.346, 3808.916)" fill="#fff2ef"/></g></svg>