<svg xmlns="http://www.w3.org/2000/svg" xmlns:xlink="http://www.w3.org/1999/xlink" width="82" height="87.662" viewBox="0 0 82 87.662">
  <defs>
    <clipPath id="clip-path">
      <rect id="Rectangle_382" data-name="Rectangle 382" width="82" height="87.662" transform="translate(0 0)" fill="none"/>
    </clipPath>
  </defs>
  <g id="Group_500" data-name="Group 500" transform="translate(0 0)" clip-path="url(#clip-path)">
    <circle id="Ellipse_85" data-name="Ellipse 85" cx="40.5" cy="40.5" r="40.5" transform="translate(0.5 0.5)" fill="none" stroke="#58232b" stroke-width="1"/>
    <path id="Path_302" data-name="Path 302" d="M31.549,44.538c-2.363-1.156-6.514,2.581-6.348,5.009.175,2.551,4.114,4.957,7.36,3.248S33.528,45.506,31.549,44.538Z" fill="none" stroke="#58232b" stroke-linecap="round" stroke-width="1"/>
    <path id="Path_303" data-name="Path 303" d="M30.985,51.556c-.124.421-.973.543-1.9.272s-1.572-.833-1.448-1.254.972-.543,1.9-.272S31.109,51.135,30.985,51.556Z" fill="none" stroke="#58232b" stroke-linecap="round" stroke-width="1"/>
    <path id="Path_304" data-name="Path 304" d="M25.928,57.94c-2.95.381-4.32,6.618-2.561,8.857,1.847,2.351,7.082,2.177,8.955-1.528S28.4,57.621,25.928,57.94Z" fill="none" stroke="#58232b" stroke-linecap="round" stroke-width="1"/>
    <path id="Path_305" data-name="Path 305" d="M30.045,65.071c.164.485-.541,1.141-1.574,1.464s-2.005.192-2.169-.293.541-1.141,1.574-1.464S29.881,64.586,30.045,65.071Z" fill="none" stroke="#58232b" stroke-linecap="round" stroke-width="1"/>
    <path id="Path_306" data-name="Path 306" d="M18.861,48.906c2.638.32,5.452-5.269,4.526-7.794-.973-2.653-5.523-3.7-8.1-.621S16.652,48.638,18.861,48.906Z" fill="none" stroke="#58232b" stroke-linecap="round" stroke-width="1"/>
    <path id="Path_307" data-name="Path 307" d="M10.7,30.825c-1.839,1.76.358,6.591,2.7,7.175,2.456.613,5.973-2.178,5.4-5.589S12.241,29.351,10.7,30.825Z" fill="none" stroke="#58232b" stroke-linecap="round" stroke-width="1"/>
    <path id="Path_308" data-name="Path 308" d="M17.126,33.444c.357.237.2,1.032-.347,1.774s-1.283,1.152-1.641.914-.2-1.031.347-1.774S16.769,33.207,17.126,33.444Z" fill="none" stroke="#58232b" stroke-linecap="round" stroke-width="1"/>
    <path id="Path_309" data-name="Path 309" d="M24.792,52.886c-1.29-2.655-7.964-2.024-9.667.318-1.788,2.459,0,7.324,4.289,7.944S25.872,55.109,24.792,52.886Z" fill="none" stroke="#58232b" stroke-linecap="round" stroke-width="1"/>
    <path id="Path_310" data-name="Path 310" d="M46.654,35.574c-11.428,1.314-6.969-8.136-11.428-9.046S23.991,25.514,26.449,20s8.654-6.506,13.257-7.9c2.552-.772,7.969-2.629,11.976,1.928,3.236,3.678,1.28,11.58,8.777,13.714" fill="none" stroke="#58232b" stroke-linecap="round" stroke-width="1"/>
    <path id="Path_311" data-name="Path 311" d="M36.4,39.041c2.349-2.285-.641-9.1-3.7-10.08-3.215-1.028-7.722,2.549-6.881,7.289S34.434,40.954,36.4,39.041Z" fill="none" stroke="#58232b" stroke-linecap="round" stroke-width="1"/>
    <path id="Path_312" data-name="Path 312" d="M34.654,30.347c.656-4.224,10.131-10.78,18.4-9.367S64.2,26.482,65.3,29.344s-.446,5.96-2.826,6.351" fill="none" stroke="#58232b" stroke-linecap="round" stroke-width="1"/>
    <path id="Path_313" data-name="Path 313" d="M42.32,87.162c7.838,0,10.862-5.535,11.441-9.248,1.012-6.49-7.172-14.2-10.947-16.066-5.113-2.522-7.131-8.412-4.023-5.3,5.238,5.238,9.942,6.284,12.526,6.537,4.2.411,10.1-.993,12.982-2.99s6.675-5.707,7.5-11.084c1.035-6.771-2.368-8.842-6.674-11.663C59.179,33.452,55.7,31.9,46.654,35.574S37,44.5,36.871,50.594c-.133,6.149,1.944-.354,2.651-2.735.732-2.46,1.828-6.555-1.505-9.148a11.512,11.512,0,0,1-.944-.816" fill="none" stroke="#58232b" stroke-linecap="round" stroke-width="1"/>
    <path id="Path_314" data-name="Path 314" d="M53.761,63.135A24.958,24.958,0,0,1,32.688,65.12" fill="none" stroke="#58232b" stroke-linecap="round" stroke-width="1"/>
    <path id="Path_315" data-name="Path 315" d="M64.867,34.217a24.775,24.775,0,0,1,.826,3.5" fill="none" stroke="#58232b" stroke-linecap="round" stroke-width="1"/>
    <path id="Path_316" data-name="Path 316" d="M18.491,31.291a24.981,24.981,0,0,1,7.435-9.325" fill="none" stroke="#58232b" stroke-linecap="round" stroke-width="1"/>
    <path id="Path_317" data-name="Path 317" d="M16.313,39.538q.09-1.048.265-2.072" fill="none" stroke="#58232b" stroke-linecap="round" stroke-width="1"/>
    <path id="Path_318" data-name="Path 318" d="M18.214,51.463a24.732,24.732,0,0,1-1.194-3.5" fill="none" stroke="#58232b" stroke-linecap="round" stroke-width="1"/>
  </g>
</svg>
